<mxfile host="app.diagrams.net" agent="Mozilla/5.0 (Windows NT 10.0; Win64; x64) AppleWebKit/537.36 (KHTML, like Gecko) Chrome/132.0.0.0 Safari/537.36" version="26.0.14" pages="4">
  <diagram name="Page-1" id="PuGXGNrYr-dKsQWu7CkB">
    <mxGraphModel dx="1436" dy="811" grid="1" gridSize="10" guides="1" tooltips="1" connect="1" arrows="1" fold="1" page="1" pageScale="1" pageWidth="2500" pageHeight="80000" math="0" shadow="0">
      <root>
        <mxCell id="0" />
        <mxCell id="1" parent="0" />
        <mxCell id="FBvDE15avgvf6uE2rXKe-3" value="" style="whiteSpace=wrap;html=1;aspect=fixed;" vertex="1" parent="1">
          <mxGeometry x="240" y="360" width="1040" height="1040" as="geometry" />
        </mxCell>
        <mxCell id="FBvDE15avgvf6uE2rXKe-4" value="membre" style="shape=umlActor;verticalLabelPosition=bottom;verticalAlign=top;html=1;outlineConnect=0;" vertex="1" parent="1">
          <mxGeometry x="90" y="580" width="80" height="120" as="geometry" />
        </mxCell>
        <mxCell id="FBvDE15avgvf6uE2rXKe-5" value="administration" style="shape=umlActor;verticalLabelPosition=bottom;verticalAlign=top;html=1;outlineConnect=0;" vertex="1" parent="1">
          <mxGeometry x="90" y="970" width="100" height="140" as="geometry" />
        </mxCell>
        <mxCell id="FBvDE15avgvf6uE2rXKe-6" value="Ajouter une réservation." style="ellipse;whiteSpace=wrap;html=1;" vertex="1" parent="1">
          <mxGeometry x="410" y="480" width="190" height="70" as="geometry" />
        </mxCell>
        <mxCell id="FBvDE15avgvf6uE2rXKe-7" value="&lt;div&gt;&lt;br&gt;&lt;/div&gt;&lt;div&gt;&amp;nbsp; Modifier une réservation.&lt;/div&gt;&lt;div&gt;&lt;br&gt;&lt;/div&gt;" style="ellipse;whiteSpace=wrap;html=1;" vertex="1" parent="1">
          <mxGeometry x="410" y="565" width="190" height="70" as="geometry" />
        </mxCell>
        <mxCell id="FBvDE15avgvf6uE2rXKe-8" value="Supprimer une réservation." style="ellipse;whiteSpace=wrap;html=1;" vertex="1" parent="1">
          <mxGeometry x="410" y="660" width="190" height="70" as="geometry" />
        </mxCell>
        <mxCell id="FBvDE15avgvf6uE2rXKe-9" value="&lt;div&gt;&lt;br&gt;&lt;/div&gt;&lt;div&gt;Consulter une activité.&lt;/div&gt;&lt;div&gt;&lt;br&gt;&lt;/div&gt;" style="ellipse;whiteSpace=wrap;html=1;" vertex="1" parent="1">
          <mxGeometry x="400" y="770" width="190" height="70" as="geometry" />
        </mxCell>
        <mxCell id="FBvDE15avgvf6uE2rXKe-10" value="&lt;div&gt;&lt;br&gt;&lt;/div&gt;&lt;div&gt;Ajouter une activité.&lt;/div&gt;&lt;div&gt;&lt;br&gt;&lt;/div&gt;" style="ellipse;whiteSpace=wrap;html=1;" vertex="1" parent="1">
          <mxGeometry x="360" y="920" width="190" height="70" as="geometry" />
        </mxCell>
        <mxCell id="FBvDE15avgvf6uE2rXKe-11" value="&lt;div&gt;&lt;br&gt;&lt;/div&gt;&lt;div&gt;Modifier une activité.&lt;/div&gt;&lt;div&gt;&lt;br&gt;&lt;/div&gt;" style="ellipse;whiteSpace=wrap;html=1;" vertex="1" parent="1">
          <mxGeometry x="360" y="1010" width="190" height="70" as="geometry" />
        </mxCell>
        <mxCell id="FBvDE15avgvf6uE2rXKe-12" value="&lt;div&gt;&lt;br&gt;&lt;/div&gt;&lt;div&gt;Supprimer une activité.&lt;/div&gt;&lt;div&gt;&lt;br&gt;&lt;/div&gt;" style="ellipse;whiteSpace=wrap;html=1;" vertex="1" parent="1">
          <mxGeometry x="350" y="1100" width="190" height="70" as="geometry" />
        </mxCell>
        <mxCell id="FBvDE15avgvf6uE2rXKe-13" value="&lt;div&gt;&lt;br&gt;&lt;/div&gt;&lt;div&gt;Voir les statistiques.&lt;/div&gt;&lt;div&gt;&lt;br&gt;&lt;/div&gt;" style="ellipse;whiteSpace=wrap;html=1;" vertex="1" parent="1">
          <mxGeometry x="350" y="1190" width="190" height="70" as="geometry" />
        </mxCell>
        <mxCell id="FBvDE15avgvf6uE2rXKe-14" value="s&#39;authentifier" style="ellipse;whiteSpace=wrap;html=1;" vertex="1" parent="1">
          <mxGeometry x="910" y="690" width="190" height="70" as="geometry" />
        </mxCell>
        <mxCell id="FBvDE15avgvf6uE2rXKe-15" value="&lt;div&gt;&lt;br&gt;&lt;/div&gt;&lt;div&gt;Répondre aux consultations.&lt;/div&gt;&lt;div&gt;&lt;br&gt;&lt;/div&gt;" style="ellipse;whiteSpace=wrap;html=1;" vertex="1" parent="1">
          <mxGeometry x="340" y="1270" width="190" height="70" as="geometry" />
        </mxCell>
        <mxCell id="FBvDE15avgvf6uE2rXKe-16" value="" style="endArrow=none;html=1;rounded=0;entryX=0;entryY=1;entryDx=0;entryDy=0;" edge="1" parent="1" target="FBvDE15avgvf6uE2rXKe-6">
          <mxGeometry width="50" height="50" relative="1" as="geometry">
            <mxPoint x="200" y="640" as="sourcePoint" />
            <mxPoint x="250" y="600" as="targetPoint" />
          </mxGeometry>
        </mxCell>
        <mxCell id="FBvDE15avgvf6uE2rXKe-17" value="" style="endArrow=none;html=1;rounded=0;entryX=0.05;entryY=0.656;entryDx=0;entryDy=0;entryPerimeter=0;" edge="1" parent="1" target="FBvDE15avgvf6uE2rXKe-7">
          <mxGeometry width="50" height="50" relative="1" as="geometry">
            <mxPoint x="200" y="640" as="sourcePoint" />
            <mxPoint x="448" y="550" as="targetPoint" />
          </mxGeometry>
        </mxCell>
        <mxCell id="FBvDE15avgvf6uE2rXKe-18" value="" style="endArrow=none;html=1;rounded=0;" edge="1" parent="1" target="FBvDE15avgvf6uE2rXKe-8">
          <mxGeometry width="50" height="50" relative="1" as="geometry">
            <mxPoint x="200" y="640" as="sourcePoint" />
            <mxPoint x="430" y="621" as="targetPoint" />
          </mxGeometry>
        </mxCell>
        <mxCell id="FBvDE15avgvf6uE2rXKe-19" value="" style="endArrow=none;html=1;rounded=0;" edge="1" parent="1" target="FBvDE15avgvf6uE2rXKe-9">
          <mxGeometry width="50" height="50" relative="1" as="geometry">
            <mxPoint x="200" y="640" as="sourcePoint" />
            <mxPoint x="430" y="690" as="targetPoint" />
          </mxGeometry>
        </mxCell>
        <mxCell id="FBvDE15avgvf6uE2rXKe-20" value="" style="endArrow=none;html=1;rounded=0;" edge="1" parent="1" target="FBvDE15avgvf6uE2rXKe-10">
          <mxGeometry width="50" height="50" relative="1" as="geometry">
            <mxPoint x="200" y="1040" as="sourcePoint" />
            <mxPoint x="453" y="786" as="targetPoint" />
          </mxGeometry>
        </mxCell>
        <mxCell id="FBvDE15avgvf6uE2rXKe-21" value="" style="endArrow=none;html=1;rounded=0;" edge="1" parent="1" target="FBvDE15avgvf6uE2rXKe-11">
          <mxGeometry width="50" height="50" relative="1" as="geometry">
            <mxPoint x="200" y="1040" as="sourcePoint" />
            <mxPoint x="395" y="988" as="targetPoint" />
          </mxGeometry>
        </mxCell>
        <mxCell id="FBvDE15avgvf6uE2rXKe-22" value="" style="endArrow=none;html=1;rounded=0;" edge="1" parent="1" target="FBvDE15avgvf6uE2rXKe-12">
          <mxGeometry width="50" height="50" relative="1" as="geometry">
            <mxPoint x="200" y="1040" as="sourcePoint" />
            <mxPoint x="370" y="1053" as="targetPoint" />
          </mxGeometry>
        </mxCell>
        <mxCell id="FBvDE15avgvf6uE2rXKe-23" value="" style="endArrow=none;html=1;rounded=0;" edge="1" parent="1" target="FBvDE15avgvf6uE2rXKe-13">
          <mxGeometry width="50" height="50" relative="1" as="geometry">
            <mxPoint x="200" y="1040" as="sourcePoint" />
            <mxPoint x="390" y="1120" as="targetPoint" />
          </mxGeometry>
        </mxCell>
        <mxCell id="FBvDE15avgvf6uE2rXKe-24" value="" style="endArrow=none;html=1;rounded=0;entryX=0.024;entryY=0.381;entryDx=0;entryDy=0;entryPerimeter=0;" edge="1" parent="1" target="FBvDE15avgvf6uE2rXKe-15">
          <mxGeometry width="50" height="50" relative="1" as="geometry">
            <mxPoint x="200" y="1040" as="sourcePoint" />
            <mxPoint x="413" y="1204" as="targetPoint" />
          </mxGeometry>
        </mxCell>
        <mxCell id="FBvDE15avgvf6uE2rXKe-26" value="&amp;lt;&amp;lt;include&amp;gt;&amp;gt;" style="endArrow=open;endSize=12;dashed=1;html=1;rounded=0;exitX=0.981;exitY=0.397;exitDx=0;exitDy=0;exitPerimeter=0;" edge="1" parent="1" source="FBvDE15avgvf6uE2rXKe-6" target="FBvDE15avgvf6uE2rXKe-14">
          <mxGeometry width="160" relative="1" as="geometry">
            <mxPoint x="540" y="680" as="sourcePoint" />
            <mxPoint x="700" y="680" as="targetPoint" />
          </mxGeometry>
        </mxCell>
        <mxCell id="FBvDE15avgvf6uE2rXKe-27" value="&amp;lt;&amp;lt;include&amp;gt;&amp;gt;" style="endArrow=open;endSize=12;dashed=1;html=1;rounded=0;exitX=0.973;exitY=0.399;exitDx=0;exitDy=0;exitPerimeter=0;entryX=0.046;entryY=0.36;entryDx=0;entryDy=0;entryPerimeter=0;" edge="1" parent="1" source="FBvDE15avgvf6uE2rXKe-7" target="FBvDE15avgvf6uE2rXKe-14">
          <mxGeometry width="160" relative="1" as="geometry">
            <mxPoint x="606" y="518" as="sourcePoint" />
            <mxPoint x="961" y="706" as="targetPoint" />
          </mxGeometry>
        </mxCell>
        <mxCell id="FBvDE15avgvf6uE2rXKe-28" value="&amp;lt;&amp;lt;include&amp;gt;&amp;gt;" style="endArrow=open;endSize=12;dashed=1;html=1;rounded=0;entryX=0;entryY=0.5;entryDx=0;entryDy=0;" edge="1" parent="1" source="FBvDE15avgvf6uE2rXKe-8" target="FBvDE15avgvf6uE2rXKe-14">
          <mxGeometry width="160" relative="1" as="geometry">
            <mxPoint x="605" y="603" as="sourcePoint" />
            <mxPoint x="929" y="725" as="targetPoint" />
          </mxGeometry>
        </mxCell>
        <mxCell id="FBvDE15avgvf6uE2rXKe-29" value="&amp;lt;&amp;lt;include&amp;gt;&amp;gt;" style="endArrow=open;endSize=12;dashed=1;html=1;rounded=0;exitX=0.936;exitY=0.307;exitDx=0;exitDy=0;exitPerimeter=0;" edge="1" parent="1" source="FBvDE15avgvf6uE2rXKe-9">
          <mxGeometry width="160" relative="1" as="geometry">
            <mxPoint x="608" y="712" as="sourcePoint" />
            <mxPoint x="920" y="735" as="targetPoint" />
          </mxGeometry>
        </mxCell>
        <mxCell id="FBvDE15avgvf6uE2rXKe-30" value="&amp;lt;&amp;lt;include&amp;gt;&amp;gt;" style="endArrow=open;endSize=12;dashed=1;html=1;rounded=0;exitX=0.979;exitY=0.407;exitDx=0;exitDy=0;exitPerimeter=0;entryX=0;entryY=1;entryDx=0;entryDy=0;" edge="1" parent="1" source="FBvDE15avgvf6uE2rXKe-10" target="FBvDE15avgvf6uE2rXKe-14">
          <mxGeometry width="160" relative="1" as="geometry">
            <mxPoint x="588" y="801" as="sourcePoint" />
            <mxPoint x="930" y="745" as="targetPoint" />
          </mxGeometry>
        </mxCell>
        <mxCell id="FBvDE15avgvf6uE2rXKe-31" value="&amp;lt;&amp;lt;include&amp;gt;&amp;gt;" style="endArrow=open;endSize=12;dashed=1;html=1;rounded=0;exitX=1;exitY=0.5;exitDx=0;exitDy=0;entryX=0.299;entryY=0.931;entryDx=0;entryDy=0;entryPerimeter=0;" edge="1" parent="1" source="FBvDE15avgvf6uE2rXKe-11" target="FBvDE15avgvf6uE2rXKe-14">
          <mxGeometry width="160" relative="1" as="geometry">
            <mxPoint x="556" y="958" as="sourcePoint" />
            <mxPoint x="937" y="757" as="targetPoint" />
          </mxGeometry>
        </mxCell>
        <mxCell id="FBvDE15avgvf6uE2rXKe-32" value="&amp;lt;&amp;lt;include&amp;gt;&amp;gt;" style="endArrow=open;endSize=12;dashed=1;html=1;rounded=0;exitX=0.973;exitY=0.386;exitDx=0;exitDy=0;entryX=0.443;entryY=0.973;entryDx=0;entryDy=0;entryPerimeter=0;exitPerimeter=0;" edge="1" parent="1" source="FBvDE15avgvf6uE2rXKe-12" target="FBvDE15avgvf6uE2rXKe-14">
          <mxGeometry width="160" relative="1" as="geometry">
            <mxPoint x="560" y="1055" as="sourcePoint" />
            <mxPoint x="977" y="765" as="targetPoint" />
          </mxGeometry>
        </mxCell>
        <mxCell id="FBvDE15avgvf6uE2rXKe-33" value="&amp;lt;&amp;lt;include&amp;gt;&amp;gt;" style="endArrow=open;endSize=12;dashed=1;html=1;rounded=0;entryX=0.591;entryY=0.973;entryDx=0;entryDy=0;entryPerimeter=0;" edge="1" parent="1" source="FBvDE15avgvf6uE2rXKe-13" target="FBvDE15avgvf6uE2rXKe-14">
          <mxGeometry width="160" relative="1" as="geometry">
            <mxPoint x="545" y="1137" as="sourcePoint" />
            <mxPoint x="1004" y="768" as="targetPoint" />
          </mxGeometry>
        </mxCell>
        <mxCell id="FBvDE15avgvf6uE2rXKe-35" value="&amp;lt;&amp;lt;include&amp;gt;&amp;gt;" style="endArrow=open;endSize=12;dashed=1;html=1;rounded=0;entryX=0.736;entryY=0.931;entryDx=0;entryDy=0;entryPerimeter=0;exitX=0.983;exitY=0.412;exitDx=0;exitDy=0;exitPerimeter=0;" edge="1" parent="1" source="FBvDE15avgvf6uE2rXKe-15" target="FBvDE15avgvf6uE2rXKe-14">
          <mxGeometry width="160" relative="1" as="geometry">
            <mxPoint x="494" y="1203" as="sourcePoint" />
            <mxPoint x="1032" y="768" as="targetPoint" />
          </mxGeometry>
        </mxCell>
        <mxCell id="FBvDE15avgvf6uE2rXKe-36" value="&lt;div&gt;&lt;font style=&quot;font-size: 18px;&quot;&gt;&lt;b&gt;Système de gestion de la salle de sport &quot;The Lost Round&quot;&lt;/b&gt;&lt;/font&gt;&lt;/div&gt;&lt;div&gt;&lt;br&gt;&lt;/div&gt;" style="rounded=0;whiteSpace=wrap;html=1;fillColor=#dae8fc;strokeColor=#6c8ebf;" vertex="1" parent="1">
          <mxGeometry x="497.5" y="280" width="525" height="60" as="geometry" />
        </mxCell>
      </root>
    </mxGraphModel>
  </diagram>
  <diagram id="fLv4PXzRaRKq-SpVfno4" name="Page-2">
    <mxGraphModel dx="6105" dy="3190" grid="0" gridSize="10" guides="1" tooltips="1" connect="1" arrows="1" fold="1" page="1" pageScale="1" pageWidth="2500" pageHeight="80000" math="0" shadow="0">
      <root>
        <mxCell id="0" />
        <mxCell id="1" parent="0" />
        <mxCell id="WdoRWkK-8LCAY7LpiJfi-24" value="" style="whiteSpace=wrap;html=1;aspect=fixed;" parent="1" vertex="1">
          <mxGeometry x="210" y="80" width="2706" height="2706" as="geometry" />
        </mxCell>
        <mxCell id="WdoRWkK-8LCAY7LpiJfi-6" value="Etudiante" style="shape=umlActor;verticalLabelPosition=bottom;verticalAlign=top;html=1;outlineConnect=0;fillColor=#f8cecc;strokeColor=#b85450;" parent="1" vertex="1">
          <mxGeometry x="100" y="2132" width="80" height="110" as="geometry" />
        </mxCell>
        <mxCell id="WdoRWkK-8LCAY7LpiJfi-8" value="Administration" style="shape=umlActor;verticalLabelPosition=bottom;verticalAlign=top;html=1;outlineConnect=0;fillColor=#f8cecc;strokeColor=#b85450;" parent="1" vertex="1">
          <mxGeometry x="97" y="889" width="80" height="110" as="geometry" />
        </mxCell>
        <mxCell id="WdoRWkK-8LCAY7LpiJfi-11" value="Professeur" style="shape=umlActor;verticalLabelPosition=bottom;verticalAlign=top;html=1;outlineConnect=0;fillColor=#f8cecc;strokeColor=#b85450;" parent="1" vertex="1">
          <mxGeometry x="112" y="1838" width="80" height="110" as="geometry" />
        </mxCell>
        <mxCell id="WdoRWkK-8LCAY7LpiJfi-25" value="Camerman" style="shape=umlActor;verticalLabelPosition=bottom;verticalAlign=top;html=1;outlineConnect=0;fillColor=#f8cecc;strokeColor=#b85450;" parent="1" vertex="1">
          <mxGeometry x="75" y="191" width="80" height="110" as="geometry" />
        </mxCell>
        <mxCell id="WdoRWkK-8LCAY7LpiJfi-26" value="Uploader des format" style="ellipse;whiteSpace=wrap;html=1;fillColor=#e1d5e7;strokeColor=#9673a6;" parent="1" vertex="1">
          <mxGeometry x="390" y="195" width="140" height="40" as="geometry" />
        </mxCell>
        <mxCell id="WdoRWkK-8LCAY7LpiJfi-27" value="Télécharger images" style="ellipse;whiteSpace=wrap;html=1;fillColor=#e1d5e7;strokeColor=#9673a6;" parent="1" vertex="1">
          <mxGeometry x="690" y="170" width="140" height="40" as="geometry" />
        </mxCell>
        <mxCell id="WdoRWkK-8LCAY7LpiJfi-28" value="Télécharger vidéos" style="ellipse;whiteSpace=wrap;html=1;fillColor=#e1d5e7;strokeColor=#9673a6;" parent="1" vertex="1">
          <mxGeometry x="690" y="235" width="140" height="40" as="geometry" />
        </mxCell>
        <mxCell id="WdoRWkK-8LCAY7LpiJfi-29" value="" style="endArrow=block;endSize=16;endFill=0;html=1;rounded=0;entryX=1;entryY=0;entryDx=0;entryDy=0;" parent="1" target="WdoRWkK-8LCAY7LpiJfi-26" edge="1">
          <mxGeometry width="160" relative="1" as="geometry">
            <mxPoint x="690" y="189.12" as="sourcePoint" />
            <mxPoint x="610.1" y="210" as="targetPoint" />
          </mxGeometry>
        </mxCell>
        <mxCell id="WdoRWkK-8LCAY7LpiJfi-30" value="" style="endArrow=block;endSize=16;endFill=0;html=1;rounded=0;" parent="1" source="WdoRWkK-8LCAY7LpiJfi-28" edge="1" target="WdoRWkK-8LCAY7LpiJfi-26">
          <mxGeometry width="160" relative="1" as="geometry">
            <mxPoint x="700" y="199.12" as="sourcePoint" />
            <mxPoint x="620" y="230" as="targetPoint" />
          </mxGeometry>
        </mxCell>
        <mxCell id="WdoRWkK-8LCAY7LpiJfi-31" value="&amp;lt;&amp;lt;include&amp;gt;&amp;gt;" style="endArrow=open;endSize=12;dashed=1;html=1;rounded=0;exitX=0.98;exitY=0.698;exitDx=0;exitDy=0;exitPerimeter=0;entryX=0.253;entryY=0.062;entryDx=0;entryDy=0;entryPerimeter=0;" parent="1" source="WdoRWkK-8LCAY7LpiJfi-28" target="WdoRWkK-8LCAY7LpiJfi-32" edge="1">
          <mxGeometry x="-0.5377" y="-11" width="160" relative="1" as="geometry">
            <mxPoint x="820" y="260" as="sourcePoint" />
            <mxPoint x="980" y="260" as="targetPoint" />
            <mxPoint as="offset" />
          </mxGeometry>
        </mxCell>
        <mxCell id="WdoRWkK-8LCAY7LpiJfi-32" value="Ajouter une image miniature" style="ellipse;whiteSpace=wrap;html=1;fillColor=#e1d5e7;strokeColor=#9673a6;" parent="1" vertex="1">
          <mxGeometry x="870" y="299" width="188" height="31" as="geometry" />
        </mxCell>
        <mxCell id="WdoRWkK-8LCAY7LpiJfi-34" value="&amp;lt;&amp;lt;secondaire&amp;gt;&amp;gt;&lt;div&gt;Systeme&lt;/div&gt;" style="rounded=0;whiteSpace=wrap;html=1;fillColor=#dae8fc;strokeColor=#6c8ebf;" parent="1" vertex="1">
          <mxGeometry x="2948" y="466" width="266" height="137" as="geometry" />
        </mxCell>
        <mxCell id="WdoRWkK-8LCAY7LpiJfi-37" value="" style="endArrow=none;html=1;rounded=0;entryX=0.023;entryY=0.393;entryDx=0;entryDy=0;entryPerimeter=0;exitX=0.704;exitY=0.117;exitDx=0;exitDy=0;exitPerimeter=0;" parent="1" source="WdoRWkK-8LCAY7LpiJfi-38" target="WdoRWkK-8LCAY7LpiJfi-34" edge="1">
          <mxGeometry width="50" height="50" relative="1" as="geometry">
            <mxPoint x="2461" y="531" as="sourcePoint" />
            <mxPoint x="2151" y="491" as="targetPoint" />
          </mxGeometry>
        </mxCell>
        <mxCell id="WdoRWkK-8LCAY7LpiJfi-38" value="Envoie Email" style="ellipse;whiteSpace=wrap;html=1;fillColor=#e1d5e7;strokeColor=#9673a6;" parent="1" vertex="1">
          <mxGeometry x="2475" y="158" width="176" height="60" as="geometry" />
        </mxCell>
        <mxCell id="WdoRWkK-8LCAY7LpiJfi-40" value="Générer un matricule" style="ellipse;whiteSpace=wrap;html=1;fillColor=#e1d5e7;strokeColor=#9673a6;" parent="1" vertex="1">
          <mxGeometry x="2538" y="345" width="140" height="40" as="geometry" />
        </mxCell>
        <mxCell id="WdoRWkK-8LCAY7LpiJfi-41" value="" style="endArrow=none;html=1;rounded=0;entryX=0.008;entryY=0.605;entryDx=0;entryDy=0;entryPerimeter=0;" parent="1" source="WdoRWkK-8LCAY7LpiJfi-40" edge="1" target="WdoRWkK-8LCAY7LpiJfi-34">
          <mxGeometry width="50" height="50" relative="1" as="geometry">
            <mxPoint x="2781" y="367" as="sourcePoint" />
            <mxPoint x="3024" y="361" as="targetPoint" />
          </mxGeometry>
        </mxCell>
        <mxCell id="WdoRWkK-8LCAY7LpiJfi-43" value="Ajouter une date d&#39;événement" style="ellipse;whiteSpace=wrap;html=1;fillColor=#e1d5e7;strokeColor=#9673a6;" parent="1" vertex="1">
          <mxGeometry x="928" y="139" width="166" height="40" as="geometry" />
        </mxCell>
        <mxCell id="WdoRWkK-8LCAY7LpiJfi-45" value="Envoyer le format à l&#39;administration" style="ellipse;whiteSpace=wrap;html=1;fillColor=#e1d5e7;strokeColor=#9673a6;" parent="1" vertex="1">
          <mxGeometry x="450" y="301" width="225" height="29" as="geometry" />
        </mxCell>
        <mxCell id="WdoRWkK-8LCAY7LpiJfi-47" value="&amp;lt;&amp;lt;include&amp;gt;&amp;gt;" style="endArrow=open;endSize=12;dashed=1;html=1;rounded=0;exitX=1;exitY=0.5;exitDx=0;exitDy=0;entryX=0;entryY=0.5;entryDx=0;entryDy=0;" parent="1" source="WdoRWkK-8LCAY7LpiJfi-27" target="WdoRWkK-8LCAY7LpiJfi-43" edge="1">
          <mxGeometry x="-0.4264" y="16" width="160" relative="1" as="geometry">
            <mxPoint x="840" y="175" as="sourcePoint" />
            <mxPoint x="914" y="205" as="targetPoint" />
            <mxPoint as="offset" />
          </mxGeometry>
        </mxCell>
        <mxCell id="WdoRWkK-8LCAY7LpiJfi-48" value="Envoyez les vidéos à l&#39;administration pour poursuivre le processus d&#39;envoi" style="shape=note;whiteSpace=wrap;html=1;backgroundOutline=1;darkOpacity=0.05;fillColor=#ffe6cc;strokeColor=#d79b00;" parent="1" vertex="1">
          <mxGeometry x="472" y="361" width="274" height="58" as="geometry" />
        </mxCell>
        <mxCell id="WdoRWkK-8LCAY7LpiJfi-51" value="&amp;lt;&amp;lt;include&amp;gt;&amp;gt;" style="endArrow=open;endSize=12;dashed=1;html=1;rounded=0;entryX=0.069;entryY=0.756;entryDx=0;entryDy=0;entryPerimeter=0;" parent="1" source="WdoRWkK-8LCAY7LpiJfi-28" edge="1" target="WdoRWkK-8LCAY7LpiJfi-43">
          <mxGeometry x="-0.3104" y="-7" width="160" relative="1" as="geometry">
            <mxPoint x="840" y="200" as="sourcePoint" />
            <mxPoint x="920" y="170" as="targetPoint" />
            <mxPoint x="-1" as="offset" />
          </mxGeometry>
        </mxCell>
        <mxCell id="WdoRWkK-8LCAY7LpiJfi-53" value="S&#39;authentifier" style="ellipse;whiteSpace=wrap;html=1;fillColor=#f8cecc;strokeColor=#b85450;" parent="1" vertex="1">
          <mxGeometry x="1133" y="385" width="140" height="40" as="geometry" />
        </mxCell>
        <mxCell id="WdoRWkK-8LCAY7LpiJfi-54" value="&amp;lt;&amp;lt;include&amp;gt;&amp;gt;" style="endArrow=open;endSize=12;dashed=1;html=1;rounded=0;exitX=0.717;exitY=0.919;exitDx=0;exitDy=0;exitPerimeter=0;" parent="1" source="WdoRWkK-8LCAY7LpiJfi-26" target="WdoRWkK-8LCAY7LpiJfi-53" edge="1">
          <mxGeometry x="-0.3104" y="-7" width="160" relative="1" as="geometry">
            <mxPoint x="803" y="247" as="sourcePoint" />
            <mxPoint x="930" y="180" as="targetPoint" />
            <mxPoint x="-1" as="offset" />
            <Array as="points">
              <mxPoint x="828" y="310" />
            </Array>
          </mxGeometry>
        </mxCell>
        <mxCell id="WdoRWkK-8LCAY7LpiJfi-55" value="&amp;lt;&amp;lt;include&amp;gt;&amp;gt;" style="endArrow=open;endSize=12;dashed=1;html=1;rounded=0;exitX=0.933;exitY=0.709;exitDx=0;exitDy=0;exitPerimeter=0;" parent="1" source="WdoRWkK-8LCAY7LpiJfi-45" edge="1">
          <mxGeometry x="-0.1152" y="10" width="160" relative="1" as="geometry">
            <mxPoint x="607" y="255" as="sourcePoint" />
            <mxPoint x="1130" y="420" as="targetPoint" />
            <mxPoint as="offset" />
          </mxGeometry>
        </mxCell>
        <mxCell id="WdoRWkK-8LCAY7LpiJfi-57" value="Visualiser un message urgent" style="ellipse;whiteSpace=wrap;html=1;fillColor=#e1d5e7;strokeColor=#9673a6;" parent="1" vertex="1">
          <mxGeometry x="454" y="441" width="148" height="37" as="geometry" />
        </mxCell>
        <mxCell id="WdoRWkK-8LCAY7LpiJfi-59" value="Valider Message par [OK]" style="ellipse;whiteSpace=wrap;html=1;fillColor=#e1d5e7;strokeColor=#9673a6;" parent="1" vertex="1">
          <mxGeometry x="670" y="466" width="150" height="34" as="geometry" />
        </mxCell>
        <mxCell id="WdoRWkK-8LCAY7LpiJfi-60" value="Répondre à un message" style="ellipse;whiteSpace=wrap;html=1;fillColor=#e1d5e7;strokeColor=#9673a6;" parent="1" vertex="1">
          <mxGeometry x="669" y="521" width="161" height="29" as="geometry" />
        </mxCell>
        <mxCell id="WdoRWkK-8LCAY7LpiJfi-61" value="&amp;lt;&amp;lt;extend&amp;gt;&amp;gt;" style="endArrow=open;endSize=12;dashed=1;html=1;rounded=0;exitX=0;exitY=0.5;exitDx=0;exitDy=0;entryX=1;entryY=0.5;entryDx=0;entryDy=0;" parent="1" source="WdoRWkK-8LCAY7LpiJfi-59" target="WdoRWkK-8LCAY7LpiJfi-57" edge="1">
          <mxGeometry x="0.0902" y="7" width="160" relative="1" as="geometry">
            <mxPoint x="655" y="500" as="sourcePoint" />
            <mxPoint x="735" y="470" as="targetPoint" />
            <mxPoint as="offset" />
          </mxGeometry>
        </mxCell>
        <mxCell id="WdoRWkK-8LCAY7LpiJfi-62" value="&amp;lt;&amp;lt;extend&amp;gt;&amp;gt;" style="endArrow=open;endSize=12;dashed=1;html=1;rounded=0;entryX=0.668;entryY=0.969;entryDx=0;entryDy=0;entryPerimeter=0;exitX=0.042;exitY=0.405;exitDx=0;exitDy=0;exitPerimeter=0;" parent="1" source="WdoRWkK-8LCAY7LpiJfi-60" edge="1" target="WdoRWkK-8LCAY7LpiJfi-57">
          <mxGeometry x="0.1457" y="6" width="160" relative="1" as="geometry">
            <mxPoint x="719.0620285438046" y="525.927777589052" as="sourcePoint" />
            <mxPoint x="530" y="479.9999999999999" as="targetPoint" />
            <mxPoint as="offset" />
          </mxGeometry>
        </mxCell>
        <mxCell id="WdoRWkK-8LCAY7LpiJfi-64" value="Visualiser les événements uploadés" style="ellipse;whiteSpace=wrap;html=1;fillColor=#e1d5e7;strokeColor=#9673a6;" parent="1" vertex="1">
          <mxGeometry x="422" y="579" width="218" height="31" as="geometry" />
        </mxCell>
        <mxCell id="WdoRWkK-8LCAY7LpiJfi-65" value="Modifier&amp;nbsp; événements" style="ellipse;whiteSpace=wrap;html=1;fillColor=#e1d5e7;strokeColor=#9673a6;" parent="1" vertex="1">
          <mxGeometry x="712" y="604" width="156" height="24" as="geometry" />
        </mxCell>
        <mxCell id="WdoRWkK-8LCAY7LpiJfi-66" value="Delete&amp;nbsp; événements" style="ellipse;whiteSpace=wrap;html=1;fillColor=#e1d5e7;strokeColor=#9673a6;" parent="1" vertex="1">
          <mxGeometry x="693" y="647" width="138" height="23" as="geometry" />
        </mxCell>
        <mxCell id="WdoRWkK-8LCAY7LpiJfi-71" value="&amp;lt;&amp;lt;include&amp;gt;&amp;gt;" style="endArrow=open;endSize=12;dashed=1;html=1;rounded=0;exitX=1;exitY=0;exitDx=0;exitDy=0;entryX=0;entryY=0.5;entryDx=0;entryDy=0;" parent="1" source="WdoRWkK-8LCAY7LpiJfi-57" target="WdoRWkK-8LCAY7LpiJfi-53" edge="1">
          <mxGeometry x="0.0114" y="6" width="160" relative="1" as="geometry">
            <mxPoint x="568" y="304" as="sourcePoint" />
            <mxPoint x="1140" y="430" as="targetPoint" />
            <mxPoint as="offset" />
            <Array as="points">
              <mxPoint x="860" y="450" />
            </Array>
          </mxGeometry>
        </mxCell>
        <mxCell id="WdoRWkK-8LCAY7LpiJfi-72" value="&amp;lt;&amp;lt;include&amp;gt;&amp;gt;" style="endArrow=open;endSize=12;dashed=1;html=1;rounded=0;exitX=1;exitY=0;exitDx=0;exitDy=0;entryX=0;entryY=1;entryDx=0;entryDy=0;" parent="1" source="WdoRWkK-8LCAY7LpiJfi-64" target="WdoRWkK-8LCAY7LpiJfi-53" edge="1">
          <mxGeometry x="-0.0873" y="-10" width="160" relative="1" as="geometry">
            <mxPoint x="579" y="456" as="sourcePoint" />
            <mxPoint x="1150" y="440" as="targetPoint" />
            <mxPoint as="offset" />
            <Array as="points">
              <mxPoint x="910" y="540" />
            </Array>
          </mxGeometry>
        </mxCell>
        <mxCell id="WdoRWkK-8LCAY7LpiJfi-74" value="Rechercher un événement par son nom" style="ellipse;whiteSpace=wrap;html=1;fillColor=#e1d5e7;strokeColor=#9673a6;" parent="1" vertex="1">
          <mxGeometry x="440" y="678" width="239" height="32" as="geometry" />
        </mxCell>
        <mxCell id="WdoRWkK-8LCAY7LpiJfi-75" value="&amp;lt;&amp;lt;include&amp;gt;&amp;gt;" style="endArrow=open;endSize=12;dashed=1;html=1;rounded=0;exitX=1;exitY=0.5;exitDx=0;exitDy=0;" parent="1" source="WdoRWkK-8LCAY7LpiJfi-74" target="WdoRWkK-8LCAY7LpiJfi-53" edge="1">
          <mxGeometry x="-0.1085" y="11" width="160" relative="1" as="geometry">
            <mxPoint x="559" y="606" as="sourcePoint" />
            <mxPoint x="1151" y="454" as="targetPoint" />
            <mxPoint as="offset" />
            <Array as="points">
              <mxPoint x="800" y="700" />
              <mxPoint x="1140" y="520" />
            </Array>
          </mxGeometry>
        </mxCell>
        <mxCell id="WdoRWkK-8LCAY7LpiJfi-83" value="Créer un compte pour les cameramen" style="ellipse;whiteSpace=wrap;html=1;fillColor=#e1d5e7;strokeColor=#9673a6;" parent="1" vertex="1">
          <mxGeometry x="480" y="846" width="214" height="34" as="geometry" />
        </mxCell>
        <mxCell id="WdoRWkK-8LCAY7LpiJfi-84" value="Modiffier" style="ellipse;whiteSpace=wrap;html=1;fillColor=#e1d5e7;strokeColor=#9673a6;" parent="1" vertex="1">
          <mxGeometry x="762" y="799" width="100" height="29" as="geometry" />
        </mxCell>
        <mxCell id="WdoRWkK-8LCAY7LpiJfi-85" value="Supprimer" style="ellipse;whiteSpace=wrap;html=1;fillColor=#e1d5e7;strokeColor=#9673a6;" parent="1" vertex="1">
          <mxGeometry x="770" y="840" width="94" height="27" as="geometry" />
        </mxCell>
        <mxCell id="WdoRWkK-8LCAY7LpiJfi-87" value="&amp;lt;&amp;lt;extend&amp;gt;&amp;gt;" style="endArrow=open;endSize=12;dashed=1;html=1;rounded=0;exitX=0;exitY=0.5;exitDx=0;exitDy=0;entryX=0.941;entryY=0.242;entryDx=0;entryDy=0;entryPerimeter=0;" parent="1" target="WdoRWkK-8LCAY7LpiJfi-83" edge="1" source="WdoRWkK-8LCAY7LpiJfi-84">
          <mxGeometry x="0.0214" y="-13" width="160" relative="1" as="geometry">
            <mxPoint x="700" y="813.76" as="sourcePoint" />
            <mxPoint x="608.94" y="840" as="targetPoint" />
            <mxPoint as="offset" />
          </mxGeometry>
        </mxCell>
        <mxCell id="WdoRWkK-8LCAY7LpiJfi-88" value="&amp;lt;&amp;lt;extend&amp;gt;&amp;gt;" style="endArrow=open;endSize=12;dashed=1;html=1;rounded=0;exitX=0.068;exitY=0.659;exitDx=0;exitDy=0;entryX=0.984;entryY=0.607;entryDx=0;entryDy=0;exitPerimeter=0;entryPerimeter=0;" parent="1" source="WdoRWkK-8LCAY7LpiJfi-85" target="WdoRWkK-8LCAY7LpiJfi-83" edge="1">
          <mxGeometry x="0.2714" y="5" width="160" relative="1" as="geometry">
            <mxPoint x="721" y="814" as="sourcePoint" />
            <mxPoint x="630" y="840" as="targetPoint" />
            <mxPoint as="offset" />
          </mxGeometry>
        </mxCell>
        <mxCell id="WdoRWkK-8LCAY7LpiJfi-89" value="Envoyer un message d&#39;urgence a le camerman" style="ellipse;whiteSpace=wrap;html=1;fillColor=#e1d5e7;strokeColor=#9673a6;" parent="1" vertex="1">
          <mxGeometry x="499" y="909" width="268" height="40" as="geometry" />
        </mxCell>
        <mxCell id="WdoRWkK-8LCAY7LpiJfi-91" value="Gestion des accès" style="ellipse;whiteSpace=wrap;html=1;fillColor=#e1d5e7;strokeColor=#9673a6;" parent="1" vertex="1">
          <mxGeometry x="510" y="1010" width="140" height="40" as="geometry" />
        </mxCell>
        <mxCell id="WdoRWkK-8LCAY7LpiJfi-94" value="cme" style="ellipse;whiteSpace=wrap;html=1;fillColor=#e1d5e7;strokeColor=#9673a6;" parent="1" vertex="1">
          <mxGeometry x="919" y="959" width="80" height="22" as="geometry" />
        </mxCell>
        <mxCell id="WdoRWkK-8LCAY7LpiJfi-95" value="Coach" style="ellipse;whiteSpace=wrap;html=1;fillColor=#e1d5e7;strokeColor=#9673a6;" parent="1" vertex="1">
          <mxGeometry x="928" y="991" width="80" height="23" as="geometry" />
        </mxCell>
        <mxCell id="WdoRWkK-8LCAY7LpiJfi-96" value="Etudiante Admit SAS" style="ellipse;whiteSpace=wrap;html=1;fillColor=#e1d5e7;strokeColor=#9673a6;" parent="1" vertex="1">
          <mxGeometry x="914" y="1024" width="139" height="29" as="geometry" />
        </mxCell>
        <mxCell id="WdoRWkK-8LCAY7LpiJfi-97" value="BDE" style="ellipse;whiteSpace=wrap;html=1;fillColor=#e1d5e7;strokeColor=#9673a6;" parent="1" vertex="1">
          <mxGeometry x="928" y="1069" width="95" height="23" as="geometry" />
        </mxCell>
        <mxCell id="WdoRWkK-8LCAY7LpiJfi-98" value="&amp;lt;&amp;lt;extend&amp;gt;&amp;gt;" style="endArrow=open;endSize=12;dashed=1;html=1;rounded=0;exitX=0;exitY=0.5;exitDx=0;exitDy=0;entryX=0.947;entryY=0.397;entryDx=0;entryDy=0;entryPerimeter=0;" parent="1" source="WdoRWkK-8LCAY7LpiJfi-94" target="WdoRWkK-8LCAY7LpiJfi-127" edge="1">
          <mxGeometry x="0.0342" y="-11" width="160" relative="1" as="geometry">
            <mxPoint x="882.72" y="998.76" as="sourcePoint" />
            <mxPoint x="817.6800000000001" y="1030.0400000000002" as="targetPoint" />
            <mxPoint as="offset" />
          </mxGeometry>
        </mxCell>
        <mxCell id="WdoRWkK-8LCAY7LpiJfi-100" value="&amp;lt;&amp;lt;extend&amp;gt;&amp;gt;" style="endArrow=open;endSize=12;dashed=1;html=1;rounded=0;entryX=0.947;entryY=0.787;entryDx=0;entryDy=0;entryPerimeter=0;" parent="1" source="WdoRWkK-8LCAY7LpiJfi-95" target="WdoRWkK-8LCAY7LpiJfi-127" edge="1">
          <mxGeometry x="0.1213" y="-2" width="160" relative="1" as="geometry">
            <mxPoint x="710" y="1010" as="sourcePoint" />
            <mxPoint x="802" y="1046" as="targetPoint" />
            <mxPoint as="offset" />
          </mxGeometry>
        </mxCell>
        <mxCell id="WdoRWkK-8LCAY7LpiJfi-101" value="&amp;lt;&amp;lt;extend&amp;gt;&amp;gt;" style="endArrow=open;endSize=12;dashed=1;html=1;rounded=0;exitX=0;exitY=0.5;exitDx=0;exitDy=0;" parent="1" source="WdoRWkK-8LCAY7LpiJfi-96" target="WdoRWkK-8LCAY7LpiJfi-127" edge="1">
          <mxGeometry x="-0.3879" y="-9" width="160" relative="1" as="geometry">
            <mxPoint x="884.72" y="1058" as="sourcePoint" />
            <mxPoint x="802.0630375091953" y="1049.1861232838935" as="targetPoint" />
            <mxPoint as="offset" />
            <Array as="points">
              <mxPoint x="840" y="1030" />
            </Array>
          </mxGeometry>
        </mxCell>
        <mxCell id="WdoRWkK-8LCAY7LpiJfi-106" value="Visuliser les statistiques" style="ellipse;whiteSpace=wrap;html=1;fillColor=#e1d5e7;strokeColor=#9673a6;" parent="1" vertex="1">
          <mxGeometry x="490" y="1180" width="140" height="40" as="geometry" />
        </mxCell>
        <mxCell id="WdoRWkK-8LCAY7LpiJfi-107" value="Nombre d&#39;authentifiés" style="ellipse;whiteSpace=wrap;html=1;fillColor=#e1d5e7;strokeColor=#9673a6;" parent="1" vertex="1">
          <mxGeometry x="725" y="1202" width="140" height="28" as="geometry" />
        </mxCell>
        <mxCell id="WdoRWkK-8LCAY7LpiJfi-108" value="Nombre d&#39;accès aux postulants des événements" style="ellipse;whiteSpace=wrap;html=1;fillColor=#e1d5e7;strokeColor=#9673a6;" parent="1" vertex="1">
          <mxGeometry x="730" y="1244" width="213" height="36" as="geometry" />
        </mxCell>
        <mxCell id="WdoRWkK-8LCAY7LpiJfi-109" value="Nombre d&#39;événements postulés" style="ellipse;whiteSpace=wrap;html=1;fillColor=#e1d5e7;strokeColor=#9673a6;" parent="1" vertex="1">
          <mxGeometry x="730" y="1295" width="205" height="29" as="geometry" />
        </mxCell>
        <mxCell id="WdoRWkK-8LCAY7LpiJfi-110" value="Nombre en attente de compléter le processus cameraman" style="ellipse;whiteSpace=wrap;html=1;fillColor=#e1d5e7;strokeColor=#9673a6;" parent="1" vertex="1">
          <mxGeometry x="712" y="1338" width="337" height="26" as="geometry" />
        </mxCell>
        <mxCell id="WdoRWkK-8LCAY7LpiJfi-119" value="&amp;lt;&amp;lt;extend&amp;gt;&amp;gt;" style="endArrow=open;endSize=12;dashed=1;html=1;rounded=0;entryX=1;entryY=0.5;entryDx=0;entryDy=0;entryPerimeter=0;" parent="1" source="WdoRWkK-8LCAY7LpiJfi-107" target="WdoRWkK-8LCAY7LpiJfi-106" edge="1">
          <mxGeometry x="-0.2272" y="-14" width="160" relative="1" as="geometry">
            <mxPoint x="700" y="1190" as="sourcePoint" />
            <mxPoint x="645" y="1215" as="targetPoint" />
            <mxPoint as="offset" />
          </mxGeometry>
        </mxCell>
        <mxCell id="WdoRWkK-8LCAY7LpiJfi-120" value="&amp;lt;&amp;lt;extend&amp;gt;&amp;gt;" style="endArrow=open;endSize=12;dashed=1;html=1;rounded=0;entryX=0.923;entryY=0.739;entryDx=0;entryDy=0;entryPerimeter=0;exitX=0.065;exitY=0.342;exitDx=0;exitDy=0;exitPerimeter=0;" parent="1" source="WdoRWkK-8LCAY7LpiJfi-108" target="WdoRWkK-8LCAY7LpiJfi-106" edge="1">
          <mxGeometry x="0.0546" y="9" width="160" relative="1" as="geometry">
            <mxPoint x="736" y="1216" as="sourcePoint" />
            <mxPoint x="640" y="1210" as="targetPoint" />
            <mxPoint as="offset" />
          </mxGeometry>
        </mxCell>
        <mxCell id="WdoRWkK-8LCAY7LpiJfi-122" value="&amp;lt;&amp;lt;extend&amp;gt;&amp;gt;" style="endArrow=open;endSize=12;dashed=1;html=1;rounded=0;entryX=0.804;entryY=0.859;entryDx=0;entryDy=0;entryPerimeter=0;exitX=0.048;exitY=0.391;exitDx=0;exitDy=0;exitPerimeter=0;" parent="1" source="WdoRWkK-8LCAY7LpiJfi-109" target="WdoRWkK-8LCAY7LpiJfi-106" edge="1">
          <mxGeometry x="-0.1231" y="-2" width="160" relative="1" as="geometry">
            <mxPoint x="760" y="1256" as="sourcePoint" />
            <mxPoint x="629" y="1220" as="targetPoint" />
            <mxPoint as="offset" />
          </mxGeometry>
        </mxCell>
        <mxCell id="WdoRWkK-8LCAY7LpiJfi-123" value="&amp;lt;&amp;lt;extend&amp;gt;&amp;gt;" style="endArrow=open;endSize=12;dashed=1;html=1;rounded=0;exitX=0;exitY=0.5;exitDx=0;exitDy=0;" parent="1" source="WdoRWkK-8LCAY7LpiJfi-110" target="WdoRWkK-8LCAY7LpiJfi-106" edge="1">
          <mxGeometry x="-0.2272" y="-14" width="160" relative="1" as="geometry">
            <mxPoint x="738" y="1338" as="sourcePoint" />
            <mxPoint x="613" y="1224" as="targetPoint" />
            <mxPoint as="offset" />
          </mxGeometry>
        </mxCell>
        <mxCell id="WdoRWkK-8LCAY7LpiJfi-125" value="Lancer la vidéo en direct" style="ellipse;whiteSpace=wrap;html=1;fillColor=#e1d5e7;strokeColor=#9673a6;" parent="1" vertex="1">
          <mxGeometry x="513" y="1433" width="140" height="29" as="geometry" />
        </mxCell>
        <mxCell id="WdoRWkK-8LCAY7LpiJfi-127" value="Postule evenement" style="ellipse;whiteSpace=wrap;html=1;fillColor=#e1d5e7;strokeColor=#9673a6;" parent="1" vertex="1">
          <mxGeometry x="712" y="951" width="84" height="40" as="geometry" />
        </mxCell>
        <mxCell id="WdoRWkK-8LCAY7LpiJfi-128" value="Lancer Stream Video" style="ellipse;whiteSpace=wrap;html=1;fillColor=#e1d5e7;strokeColor=#9673a6;" parent="1" vertex="1">
          <mxGeometry x="710" y="1084" width="163" height="28" as="geometry" />
        </mxCell>
        <mxCell id="WdoRWkK-8LCAY7LpiJfi-129" value="&amp;lt;&amp;lt;extend&amp;gt;&amp;gt;" style="endArrow=open;endSize=12;dashed=1;html=1;rounded=0;exitX=0;exitY=1;exitDx=0;exitDy=0;entryX=0.959;entryY=0.265;entryDx=0;entryDy=0;entryPerimeter=0;" parent="1" source="WdoRWkK-8LCAY7LpiJfi-127" target="WdoRWkK-8LCAY7LpiJfi-91" edge="1">
          <mxGeometry x="0.0572" y="-18" width="160" relative="1" as="geometry">
            <mxPoint x="706" y="1037" as="sourcePoint" />
            <mxPoint x="590" y="1035" as="targetPoint" />
            <mxPoint as="offset" />
          </mxGeometry>
        </mxCell>
        <mxCell id="WdoRWkK-8LCAY7LpiJfi-130" value="&amp;lt;&amp;lt;extend&amp;gt;&amp;gt;" style="endArrow=open;endSize=12;dashed=1;html=1;rounded=0;exitX=0;exitY=0;exitDx=0;exitDy=0;entryX=1;entryY=0.5;entryDx=0;entryDy=0;" parent="1" source="WdoRWkK-8LCAY7LpiJfi-128" target="WdoRWkK-8LCAY7LpiJfi-91" edge="1">
          <mxGeometry x="-0.7634" y="-9" width="160" relative="1" as="geometry">
            <mxPoint x="737" y="1004" as="sourcePoint" />
            <mxPoint x="654" y="1031" as="targetPoint" />
            <mxPoint as="offset" />
          </mxGeometry>
        </mxCell>
        <mxCell id="WdoRWkK-8LCAY7LpiJfi-136" value="Continuer le processus d&#39;envoi de l&#39;événement." style="ellipse;whiteSpace=wrap;html=1;fillColor=#e1d5e7;strokeColor=#9673a6;" parent="1" vertex="1">
          <mxGeometry x="510" y="1506" width="188" height="60" as="geometry" />
        </mxCell>
        <mxCell id="WdoRWkK-8LCAY7LpiJfi-138" value="Traiter Cours Francais&amp;nbsp;" style="ellipse;whiteSpace=wrap;html=1;fillColor=#e1d5e7;strokeColor=#9673a6;" parent="1" vertex="1">
          <mxGeometry x="510" y="1579" width="140" height="40" as="geometry" />
        </mxCell>
        <mxCell id="WdoRWkK-8LCAY7LpiJfi-139" value="Nombre en attente de validation des cours de français" style="ellipse;whiteSpace=wrap;html=1;fillColor=#e1d5e7;strokeColor=#9673a6;" parent="1" vertex="1">
          <mxGeometry x="762" y="1381" width="270" height="46" as="geometry" />
        </mxCell>
        <mxCell id="WdoRWkK-8LCAY7LpiJfi-140" value="Nombre cours Lancer de cours Francais" style="ellipse;whiteSpace=wrap;html=1;fillColor=#e1d5e7;strokeColor=#9673a6;" parent="1" vertex="1">
          <mxGeometry x="728" y="1518" width="245" height="28" as="geometry" />
        </mxCell>
        <mxCell id="WdoRWkK-8LCAY7LpiJfi-141" value="&amp;lt;&amp;lt;extend&amp;gt;&amp;gt;" style="endArrow=open;endSize=12;dashed=1;html=1;rounded=0;exitX=0.055;exitY=0.309;exitDx=0;exitDy=0;entryX=0.367;entryY=0.898;entryDx=0;entryDy=0;entryPerimeter=0;exitPerimeter=0;" parent="1" source="WdoRWkK-8LCAY7LpiJfi-139" target="WdoRWkK-8LCAY7LpiJfi-106" edge="1">
          <mxGeometry x="-0.2557" y="-5" width="160" relative="1" as="geometry">
            <mxPoint x="725" y="1390" as="sourcePoint" />
            <mxPoint x="587" y="1229" as="targetPoint" />
            <mxPoint as="offset" />
            <Array as="points">
              <mxPoint x="638" y="1355" />
            </Array>
          </mxGeometry>
        </mxCell>
        <mxCell id="WdoRWkK-8LCAY7LpiJfi-142" value="&amp;lt;&amp;lt;extend&amp;gt;&amp;gt;" style="endArrow=open;endSize=12;dashed=1;html=1;rounded=0;exitX=0;exitY=0.5;exitDx=0;exitDy=0;entryX=0.228;entryY=0.858;entryDx=0;entryDy=0;entryPerimeter=0;" parent="1" source="WdoRWkK-8LCAY7LpiJfi-140" target="WdoRWkK-8LCAY7LpiJfi-106" edge="1">
          <mxGeometry x="-0.2272" y="-14" width="160" relative="1" as="geometry">
            <mxPoint x="755" y="1439" as="sourcePoint" />
            <mxPoint x="551" y="1226" as="targetPoint" />
            <mxPoint as="offset" />
            <Array as="points">
              <mxPoint x="608" y="1382" />
            </Array>
          </mxGeometry>
        </mxCell>
        <mxCell id="WdoRWkK-8LCAY7LpiJfi-143" value="Valider&amp;nbsp;" style="ellipse;whiteSpace=wrap;html=1;fillColor=#e1d5e7;strokeColor=#9673a6;" parent="1" vertex="1">
          <mxGeometry x="736" y="1576" width="140" height="18" as="geometry" />
        </mxCell>
        <mxCell id="WdoRWkK-8LCAY7LpiJfi-144" value="Refuser" style="ellipse;whiteSpace=wrap;html=1;fillColor=#e1d5e7;strokeColor=#9673a6;" parent="1" vertex="1">
          <mxGeometry x="770" y="1619" width="87" height="23" as="geometry" />
        </mxCell>
        <mxCell id="WdoRWkK-8LCAY7LpiJfi-145" value="&amp;lt;&amp;lt;extend&amp;gt;&amp;gt;" style="endArrow=open;endSize=12;dashed=1;html=1;rounded=0;entryX=0.879;entryY=0.199;entryDx=0;entryDy=0;exitX=0.018;exitY=0.38;exitDx=0;exitDy=0;exitPerimeter=0;entryPerimeter=0;" parent="1" source="WdoRWkK-8LCAY7LpiJfi-143" target="WdoRWkK-8LCAY7LpiJfi-138" edge="1">
          <mxGeometry x="-0.0978" y="-6" width="160" relative="1" as="geometry">
            <mxPoint x="737" y="1611" as="sourcePoint" />
            <mxPoint x="640" y="1605" as="targetPoint" />
            <mxPoint as="offset" />
          </mxGeometry>
        </mxCell>
        <mxCell id="WdoRWkK-8LCAY7LpiJfi-146" value="&amp;lt;&amp;lt;extend&amp;gt;&amp;gt;" style="endArrow=open;endSize=12;dashed=1;html=1;rounded=0;entryX=0.922;entryY=0.741;entryDx=0;entryDy=0;entryPerimeter=0;" parent="1" source="WdoRWkK-8LCAY7LpiJfi-144" target="WdoRWkK-8LCAY7LpiJfi-138" edge="1">
          <mxGeometry x="-0.2272" y="-14" width="160" relative="1" as="geometry">
            <mxPoint x="726" y="1588" as="sourcePoint" />
            <mxPoint x="650" y="1615" as="targetPoint" />
            <mxPoint as="offset" />
          </mxGeometry>
        </mxCell>
        <mxCell id="WdoRWkK-8LCAY7LpiJfi-148" value="Visualiser l&#39;interface Etudiant" style="ellipse;whiteSpace=wrap;html=1;fillColor=#e1d5e7;strokeColor=#9673a6;" parent="1" vertex="1">
          <mxGeometry x="507" y="1660" width="140" height="40" as="geometry" />
        </mxCell>
        <mxCell id="WdoRWkK-8LCAY7LpiJfi-150" value="&amp;lt;&amp;lt;include&amp;gt;&amp;gt;" style="endArrow=open;endSize=12;dashed=1;html=1;rounded=0;" parent="1" source="WdoRWkK-8LCAY7LpiJfi-83" edge="1">
          <mxGeometry x="-0.1085" y="11" width="160" relative="1" as="geometry">
            <mxPoint x="590" y="700" as="sourcePoint" />
            <mxPoint x="1189" y="460" as="targetPoint" />
            <mxPoint as="offset" />
            <Array as="points">
              <mxPoint x="845" y="728" />
              <mxPoint x="1150" y="530" />
            </Array>
          </mxGeometry>
        </mxCell>
        <mxCell id="WdoRWkK-8LCAY7LpiJfi-151" value="&amp;lt;&amp;lt;include&amp;gt;&amp;gt;" style="endArrow=open;endSize=12;dashed=1;html=1;rounded=0;exitX=1;exitY=0.5;exitDx=0;exitDy=0;entryX=1;entryY=1;entryDx=0;entryDy=0;" parent="1" source="WdoRWkK-8LCAY7LpiJfi-89" target="WdoRWkK-8LCAY7LpiJfi-53" edge="1">
          <mxGeometry x="-0.1085" y="11" width="160" relative="1" as="geometry">
            <mxPoint x="598" y="853" as="sourcePoint" />
            <mxPoint x="1199" y="470" as="targetPoint" />
            <mxPoint as="offset" />
            <Array as="points">
              <mxPoint x="895" y="933" />
              <mxPoint x="1036" y="796" />
              <mxPoint x="1160" y="540" />
            </Array>
          </mxGeometry>
        </mxCell>
        <mxCell id="WdoRWkK-8LCAY7LpiJfi-152" value="&amp;lt;&amp;lt;include&amp;gt;&amp;gt;" style="endArrow=open;endSize=12;dashed=1;html=1;rounded=0;exitX=0.623;exitY=0.971;exitDx=0;exitDy=0;entryX=1;entryY=1;entryDx=0;entryDy=0;exitPerimeter=0;" parent="1" source="WdoRWkK-8LCAY7LpiJfi-91" target="WdoRWkK-8LCAY7LpiJfi-53" edge="1">
          <mxGeometry x="0.2591" width="160" relative="1" as="geometry">
            <mxPoint x="650" y="960" as="sourcePoint" />
            <mxPoint x="1249" y="454" as="targetPoint" />
            <mxPoint x="1" as="offset" />
            <Array as="points">
              <mxPoint x="780" y="1176" />
              <mxPoint x="931" y="1216" />
              <mxPoint x="1033" y="1278" />
              <mxPoint x="1176" y="760" />
              <mxPoint x="1249" y="553" />
            </Array>
          </mxGeometry>
        </mxCell>
        <mxCell id="WdoRWkK-8LCAY7LpiJfi-153" value="&amp;lt;&amp;lt;include&amp;gt;&amp;gt;" style="endArrow=open;endSize=12;dashed=1;html=1;rounded=0;exitX=0.656;exitY=0.01;exitDx=0;exitDy=0;entryX=0.975;entryY=0.708;entryDx=0;entryDy=0;exitPerimeter=0;entryPerimeter=0;" parent="1" source="WdoRWkK-8LCAY7LpiJfi-106" target="WdoRWkK-8LCAY7LpiJfi-53" edge="1">
          <mxGeometry x="0.2591" width="160" relative="1" as="geometry">
            <mxPoint x="607" y="1059" as="sourcePoint" />
            <mxPoint x="1249" y="454" as="targetPoint" />
            <mxPoint x="1" as="offset" />
            <Array as="points">
              <mxPoint x="870" y="1204" />
              <mxPoint x="938" y="1244" />
              <mxPoint x="1043" y="1294" />
              <mxPoint x="1186" y="770" />
              <mxPoint x="1259" y="563" />
            </Array>
          </mxGeometry>
        </mxCell>
        <mxCell id="WdoRWkK-8LCAY7LpiJfi-154" value="&amp;lt;&amp;lt;include&amp;gt;&amp;gt;" style="endArrow=open;endSize=12;dashed=1;html=1;rounded=0;exitX=0.966;exitY=0.706;exitDx=0;exitDy=0;exitPerimeter=0;" parent="1" source="WdoRWkK-8LCAY7LpiJfi-125" edge="1">
          <mxGeometry x="0.2591" width="160" relative="1" as="geometry">
            <mxPoint x="596" y="1439" as="sourcePoint" />
            <mxPoint x="1253" y="439" as="targetPoint" />
            <mxPoint x="1" as="offset" />
            <Array as="points">
              <mxPoint x="735" y="1481" />
              <mxPoint x="955" y="1487" />
              <mxPoint x="1090" y="1409" />
              <mxPoint x="1200" y="1029" />
              <mxPoint x="1273" y="822" />
            </Array>
          </mxGeometry>
        </mxCell>
        <mxCell id="WdoRWkK-8LCAY7LpiJfi-155" value="&amp;lt;&amp;lt;include&amp;gt;&amp;gt;" style="endArrow=open;endSize=12;dashed=1;html=1;rounded=0;exitX=0.916;exitY=0.764;exitDx=0;exitDy=0;exitPerimeter=0;entryX=1;entryY=0.5;entryDx=0;entryDy=0;" parent="1" target="WdoRWkK-8LCAY7LpiJfi-53" edge="1" source="WdoRWkK-8LCAY7LpiJfi-136">
          <mxGeometry x="0.2591" width="160" relative="1" as="geometry">
            <mxPoint x="647" y="1527" as="sourcePoint" />
            <mxPoint x="1255" y="498" as="targetPoint" />
            <mxPoint x="1" as="offset" />
            <Array as="points">
              <mxPoint x="743" y="1558" />
              <mxPoint x="957" y="1571" />
              <mxPoint x="1092" y="1468" />
              <mxPoint x="1202" y="1088" />
              <mxPoint x="1275" y="881" />
            </Array>
          </mxGeometry>
        </mxCell>
        <mxCell id="WdoRWkK-8LCAY7LpiJfi-156" value="&amp;lt;&amp;lt;include&amp;gt;&amp;gt;" style="endArrow=open;endSize=12;dashed=1;html=1;rounded=0;exitX=0.966;exitY=0.706;exitDx=0;exitDy=0;exitPerimeter=0;" parent="1" edge="1">
          <mxGeometry x="0.2591" width="160" relative="1" as="geometry">
            <mxPoint x="620" y="1619" as="sourcePoint" />
            <mxPoint x="1253" y="442" as="targetPoint" />
            <mxPoint x="1" as="offset" />
            <Array as="points">
              <mxPoint x="709" y="1680" />
              <mxPoint x="825" y="1700" />
              <mxPoint x="930" y="1663" />
              <mxPoint x="1248" y="1517" />
              <mxPoint x="1350" y="1163" />
              <mxPoint x="1413" y="907" />
            </Array>
          </mxGeometry>
        </mxCell>
        <mxCell id="WdoRWkK-8LCAY7LpiJfi-157" value="&amp;lt;&amp;lt;include&amp;gt;&amp;gt;" style="endArrow=open;endSize=12;dashed=1;html=1;rounded=0;exitX=0.966;exitY=0.706;exitDx=0;exitDy=0;exitPerimeter=0;" parent="1" edge="1">
          <mxGeometry x="0.2591" width="160" relative="1" as="geometry">
            <mxPoint x="620" y="1697" as="sourcePoint" />
            <mxPoint x="1257" y="437" as="targetPoint" />
            <mxPoint x="1" as="offset" />
            <Array as="points">
              <mxPoint x="709" y="1758" />
              <mxPoint x="825" y="1778" />
              <mxPoint x="930" y="1741" />
              <mxPoint x="1248" y="1595" />
              <mxPoint x="1350" y="1241" />
              <mxPoint x="1483" y="952" />
              <mxPoint x="1466" y="671" />
            </Array>
          </mxGeometry>
        </mxCell>
        <mxCell id="WdoRWkK-8LCAY7LpiJfi-159" value="Modifier Profil" style="ellipse;whiteSpace=wrap;html=1;fillColor=#e1d5e7;strokeColor=#9673a6;" parent="1" vertex="1">
          <mxGeometry x="434" y="727" width="140" height="29" as="geometry" />
        </mxCell>
        <mxCell id="WdoRWkK-8LCAY7LpiJfi-161" value="&amp;lt;&amp;lt;include&amp;gt;&amp;gt;" style="endArrow=open;endSize=12;dashed=1;html=1;rounded=0;exitX=1;exitY=0.5;exitDx=0;exitDy=0;entryX=0.693;entryY=0.911;entryDx=0;entryDy=0;entryPerimeter=0;" parent="1" source="WdoRWkK-8LCAY7LpiJfi-159" target="WdoRWkK-8LCAY7LpiJfi-53" edge="1">
          <mxGeometry x="0.0368" y="7" width="160" relative="1" as="geometry">
            <mxPoint x="590" y="700" as="sourcePoint" />
            <mxPoint x="1189" y="460" as="targetPoint" />
            <mxPoint as="offset" />
            <Array as="points">
              <mxPoint x="810" y="710" />
              <mxPoint x="1150" y="530" />
            </Array>
          </mxGeometry>
        </mxCell>
        <mxCell id="WdoRWkK-8LCAY7LpiJfi-164" value="Acceder compte" style="ellipse;whiteSpace=wrap;html=1;fillColor=#e1d5e7;strokeColor=#9673a6;" parent="1" vertex="1">
          <mxGeometry x="518" y="1816" width="140" height="40" as="geometry" />
        </mxCell>
        <mxCell id="WdoRWkK-8LCAY7LpiJfi-166" value="Accéder à l&#39;interface publique" style="ellipse;whiteSpace=wrap;html=1;fillColor=#e1d5e7;strokeColor=#9673a6;" parent="1" vertex="1">
          <mxGeometry x="535" y="1906" width="180" height="38" as="geometry" />
        </mxCell>
        <mxCell id="WdoRWkK-8LCAY7LpiJfi-167" value="" style="endArrow=none;html=1;rounded=0;entryX=0.072;entryY=0.717;entryDx=0;entryDy=0;entryPerimeter=0;" parent="1" target="WdoRWkK-8LCAY7LpiJfi-164" edge="1">
          <mxGeometry width="50" height="50" relative="1" as="geometry">
            <mxPoint x="194" y="1907" as="sourcePoint" />
            <mxPoint x="505" y="1845" as="targetPoint" />
          </mxGeometry>
        </mxCell>
        <mxCell id="WdoRWkK-8LCAY7LpiJfi-169" value="" style="endArrow=none;html=1;rounded=0;" parent="1" target="WdoRWkK-8LCAY7LpiJfi-166" edge="1">
          <mxGeometry width="50" height="50" relative="1" as="geometry">
            <mxPoint x="196" y="1908" as="sourcePoint" />
            <mxPoint x="554" y="1945" as="targetPoint" />
          </mxGeometry>
        </mxCell>
        <mxCell id="WdoRWkK-8LCAY7LpiJfi-176" value="Visualiser les statistiques des cours" style="ellipse;whiteSpace=wrap;html=1;fillColor=#e1d5e7;strokeColor=#9673a6;" parent="1" vertex="1">
          <mxGeometry x="521" y="1998" width="199" height="40" as="geometry" />
        </mxCell>
        <mxCell id="WdoRWkK-8LCAY7LpiJfi-177" value="" style="endArrow=none;html=1;rounded=0;" parent="1" target="WdoRWkK-8LCAY7LpiJfi-176" edge="1">
          <mxGeometry width="50" height="50" relative="1" as="geometry">
            <mxPoint x="196" y="1909" as="sourcePoint" />
            <mxPoint x="551" y="1987" as="targetPoint" />
          </mxGeometry>
        </mxCell>
        <mxCell id="WdoRWkK-8LCAY7LpiJfi-179" value="En attente de validation par l&#39;administration" style="ellipse;whiteSpace=wrap;html=1;fillColor=#e1d5e7;strokeColor=#9673a6;" parent="1" vertex="1">
          <mxGeometry x="806" y="1986" width="252" height="40" as="geometry" />
        </mxCell>
        <mxCell id="WdoRWkK-8LCAY7LpiJfi-180" value="Postuler sur la plateforme" style="ellipse;whiteSpace=wrap;html=1;fillColor=#e1d5e7;strokeColor=#9673a6;" parent="1" vertex="1">
          <mxGeometry x="825" y="2090" width="184" height="28" as="geometry" />
        </mxCell>
        <mxCell id="WdoRWkK-8LCAY7LpiJfi-181" value="&amp;lt;&amp;lt;extend&amp;gt;&amp;gt;" style="endArrow=open;endSize=12;dashed=1;html=1;rounded=0;entryX=1;entryY=0;entryDx=0;entryDy=0;exitX=0;exitY=0.5;exitDx=0;exitDy=0;" parent="1" source="WdoRWkK-8LCAY7LpiJfi-179" target="WdoRWkK-8LCAY7LpiJfi-176" edge="1">
          <mxGeometry x="-1" y="-91" width="160" relative="1" as="geometry">
            <mxPoint x="756" y="2080" as="sourcePoint" />
            <mxPoint x="664" y="2054" as="targetPoint" />
            <mxPoint x="53" y="18" as="offset" />
          </mxGeometry>
        </mxCell>
        <mxCell id="WdoRWkK-8LCAY7LpiJfi-182" value="&amp;lt;&amp;lt;extend&amp;gt;&amp;gt;" style="endArrow=open;endSize=12;dashed=1;html=1;rounded=0;entryX=1;entryY=1;entryDx=0;entryDy=0;" parent="1" source="WdoRWkK-8LCAY7LpiJfi-180" target="WdoRWkK-8LCAY7LpiJfi-176" edge="1">
          <mxGeometry x="-0.2272" y="-14" width="160" relative="1" as="geometry">
            <mxPoint x="740" y="2050" as="sourcePoint" />
            <mxPoint x="664" y="2067" as="targetPoint" />
            <mxPoint as="offset" />
          </mxGeometry>
        </mxCell>
        <mxCell id="WdoRWkK-8LCAY7LpiJfi-183" value="Modifier le compte" style="ellipse;whiteSpace=wrap;html=1;fillColor=#e1d5e7;strokeColor=#9673a6;" parent="1" vertex="1">
          <mxGeometry x="518" y="2109" width="140" height="31" as="geometry" />
        </mxCell>
        <mxCell id="WdoRWkK-8LCAY7LpiJfi-184" value="" style="endArrow=none;html=1;rounded=0;" parent="1" target="WdoRWkK-8LCAY7LpiJfi-183" edge="1">
          <mxGeometry width="50" height="50" relative="1" as="geometry">
            <mxPoint x="196" y="1909" as="sourcePoint" />
            <mxPoint x="559" y="2053" as="targetPoint" />
          </mxGeometry>
        </mxCell>
        <mxCell id="WdoRWkK-8LCAY7LpiJfi-190" value="Admit_YC" style="shape=umlActor;verticalLabelPosition=bottom;verticalAlign=top;html=1;outlineConnect=0;fillColor=#f8cecc;strokeColor=#b85450;" parent="1" vertex="1">
          <mxGeometry x="97" y="2349" width="80" height="110" as="geometry" />
        </mxCell>
        <mxCell id="WdoRWkK-8LCAY7LpiJfi-193" value="Non_Admit_SAS" style="shape=umlActor;verticalLabelPosition=bottom;verticalAlign=top;html=1;outlineConnect=0;fillColor=#f8cecc;strokeColor=#b85450;" parent="1" vertex="1">
          <mxGeometry x="103" y="2592" width="80" height="110" as="geometry" />
        </mxCell>
        <mxCell id="WdoRWkK-8LCAY7LpiJfi-195" value="Visulaliser le plateforme" style="ellipse;whiteSpace=wrap;html=1;fillColor=#e1d5e7;strokeColor=#9673a6;" parent="1" vertex="1">
          <mxGeometry x="324" y="2159" width="140" height="40" as="geometry" />
        </mxCell>
        <mxCell id="WdoRWkK-8LCAY7LpiJfi-196" value="Acceder a le cours Francais&amp;nbsp;" style="ellipse;whiteSpace=wrap;html=1;fillColor=#e1d5e7;strokeColor=#9673a6;" parent="1" vertex="1">
          <mxGeometry x="308" y="2369" width="140" height="40" as="geometry" />
        </mxCell>
        <mxCell id="WdoRWkK-8LCAY7LpiJfi-199" value="Acceder a le&amp;nbsp; Stream" style="ellipse;whiteSpace=wrap;html=1;fillColor=#e1d5e7;strokeColor=#9673a6;" parent="1" vertex="1">
          <mxGeometry x="310" y="2424" width="140" height="40" as="geometry" />
        </mxCell>
        <mxCell id="WdoRWkK-8LCAY7LpiJfi-200" value="Visualition programme" style="ellipse;whiteSpace=wrap;html=1;fillColor=#e1d5e7;strokeColor=#9673a6;" parent="1" vertex="1">
          <mxGeometry x="326" y="2584" width="140" height="40" as="geometry" />
        </mxCell>
        <mxCell id="YFDpQ5L5FmxyyaYrbYLm-1" value="" style="endArrow=none;dashed=1;html=1;rounded=0;entryX=0.418;entryY=1.003;entryDx=0;entryDy=0;entryPerimeter=0;exitX=0.156;exitY=0.005;exitDx=0;exitDy=0;exitPerimeter=0;" edge="1" parent="1" source="WdoRWkK-8LCAY7LpiJfi-48" target="WdoRWkK-8LCAY7LpiJfi-45">
          <mxGeometry width="50" height="50" relative="1" as="geometry">
            <mxPoint x="697" y="396" as="sourcePoint" />
            <mxPoint x="747" y="346" as="targetPoint" />
          </mxGeometry>
        </mxCell>
        <mxCell id="YFDpQ5L5FmxyyaYrbYLm-4" value="" style="endArrow=block;endSize=16;endFill=0;html=1;rounded=0;entryX=0.954;entryY=0.687;entryDx=0;entryDy=0;exitX=0.076;exitY=0.735;exitDx=0;exitDy=0;exitPerimeter=0;entryPerimeter=0;" edge="1" parent="1" source="WdoRWkK-8LCAY7LpiJfi-65" target="WdoRWkK-8LCAY7LpiJfi-64">
          <mxGeometry width="160" relative="1" as="geometry">
            <mxPoint x="586" y="643" as="sourcePoint" />
            <mxPoint x="746" y="643" as="targetPoint" />
          </mxGeometry>
        </mxCell>
        <mxCell id="YFDpQ5L5FmxyyaYrbYLm-5" value="" style="endArrow=block;endSize=16;endFill=0;html=1;rounded=0;entryX=0.56;entryY=1;entryDx=0;entryDy=0;exitX=0;exitY=0.5;exitDx=0;exitDy=0;entryPerimeter=0;" edge="1" parent="1" source="WdoRWkK-8LCAY7LpiJfi-66" target="WdoRWkK-8LCAY7LpiJfi-64">
          <mxGeometry width="160" relative="1" as="geometry">
            <mxPoint x="728" y="632" as="sourcePoint" />
            <mxPoint x="619" y="615" as="targetPoint" />
          </mxGeometry>
        </mxCell>
        <mxCell id="YFDpQ5L5FmxyyaYrbYLm-8" value="&amp;lt;&amp;lt;extend&amp;gt;&amp;gt;" style="endArrow=open;endSize=12;dashed=1;html=1;rounded=0;exitX=0.057;exitY=0.625;exitDx=0;exitDy=0;exitPerimeter=0;entryX=0.378;entryY=0.954;entryDx=0;entryDy=0;entryPerimeter=0;" edge="1" parent="1" source="WdoRWkK-8LCAY7LpiJfi-97" target="WdoRWkK-8LCAY7LpiJfi-127">
          <mxGeometry x="-0.5716" y="-11" width="160" relative="1" as="geometry">
            <mxPoint x="924" y="1049" as="sourcePoint" />
            <mxPoint x="788" y="997" as="targetPoint" />
            <mxPoint as="offset" />
            <Array as="points">
              <mxPoint x="845" y="1056" />
            </Array>
          </mxGeometry>
        </mxCell>
        <mxCell id="YFDpQ5L5FmxyyaYrbYLm-9" value="&amp;lt;&amp;lt;extend&amp;gt;&amp;gt;" style="endArrow=open;endSize=12;dashed=1;html=1;rounded=0;exitX=0.913;exitY=0.761;exitDx=0;exitDy=0;exitPerimeter=0;entryX=1;entryY=1;entryDx=0;entryDy=0;" edge="1" parent="1" source="WdoRWkK-8LCAY7LpiJfi-128" target="WdoRWkK-8LCAY7LpiJfi-97">
          <mxGeometry x="-0.5716" y="-11" width="160" relative="1" as="geometry">
            <mxPoint x="943" y="1093" as="sourcePoint" />
            <mxPoint x="754" y="999" as="targetPoint" />
            <mxPoint as="offset" />
            <Array as="points">
              <mxPoint x="977" y="1111" />
            </Array>
          </mxGeometry>
        </mxCell>
        <mxCell id="YFDpQ5L5FmxyyaYrbYLm-10" value="&amp;lt;&amp;lt;extend&amp;gt;&amp;gt;" style="endArrow=open;endSize=12;dashed=1;html=1;rounded=0;exitX=0.5;exitY=1;exitDx=0;exitDy=0;entryX=1;entryY=1;entryDx=0;entryDy=0;" edge="1" parent="1" source="WdoRWkK-8LCAY7LpiJfi-128" target="WdoRWkK-8LCAY7LpiJfi-96">
          <mxGeometry x="-0.5716" y="-11" width="160" relative="1" as="geometry">
            <mxPoint x="869" y="1115" as="sourcePoint" />
            <mxPoint x="1023" y="1095" as="targetPoint" />
            <mxPoint as="offset" />
            <Array as="points">
              <mxPoint x="898" y="1133" />
              <mxPoint x="1021" y="1133" />
            </Array>
          </mxGeometry>
        </mxCell>
        <mxCell id="YFDpQ5L5FmxyyaYrbYLm-12" value="&amp;lt;&amp;lt;extend&amp;gt;&amp;gt;" style="endArrow=open;endSize=12;dashed=1;html=1;rounded=0;exitX=0.254;exitY=0.972;exitDx=0;exitDy=0;entryX=0.779;entryY=0.126;entryDx=0;entryDy=0;exitPerimeter=0;entryPerimeter=0;" edge="1" parent="1" source="WdoRWkK-8LCAY7LpiJfi-128" target="WdoRWkK-8LCAY7LpiJfi-95">
          <mxGeometry x="-0.5716" y="-11" width="160" relative="1" as="geometry">
            <mxPoint x="802" y="1122" as="sourcePoint" />
            <mxPoint x="1043" y="1059" as="targetPoint" />
            <mxPoint as="offset" />
            <Array as="points">
              <mxPoint x="904" y="1186" />
              <mxPoint x="1038" y="1148" />
              <mxPoint x="1061" y="1053" />
              <mxPoint x="1038" y="978" />
            </Array>
          </mxGeometry>
        </mxCell>
        <mxCell id="YFDpQ5L5FmxyyaYrbYLm-13" value="&amp;lt;&amp;lt;extend&amp;gt;&amp;gt;" style="endArrow=open;endSize=12;dashed=1;html=1;rounded=0;exitX=0;exitY=1;exitDx=0;exitDy=0;entryX=1;entryY=0.5;entryDx=0;entryDy=0;" edge="1" parent="1" source="WdoRWkK-8LCAY7LpiJfi-128" target="WdoRWkK-8LCAY7LpiJfi-94">
          <mxGeometry x="-0.3426" y="5" width="160" relative="1" as="geometry">
            <mxPoint x="761" y="1121" as="sourcePoint" />
            <mxPoint x="1000" y="1004" as="targetPoint" />
            <mxPoint as="offset" />
            <Array as="points">
              <mxPoint x="803" y="1173" />
              <mxPoint x="952" y="1211" />
              <mxPoint x="1048" y="1158" />
              <mxPoint x="1071" y="1063" />
              <mxPoint x="1054" y="968" />
            </Array>
          </mxGeometry>
        </mxCell>
        <mxCell id="YFDpQ5L5FmxyyaYrbYLm-15" value="" style="endArrow=none;html=1;rounded=0;entryX=0.043;entryY=0.63;entryDx=0;entryDy=0;entryPerimeter=0;" edge="1" parent="1" target="WdoRWkK-8LCAY7LpiJfi-83">
          <mxGeometry width="50" height="50" relative="1" as="geometry">
            <mxPoint x="191" y="946" as="sourcePoint" />
            <mxPoint x="469" y="976" as="targetPoint" />
          </mxGeometry>
        </mxCell>
        <mxCell id="YFDpQ5L5FmxyyaYrbYLm-16" value="" style="endArrow=none;html=1;rounded=0;entryX=0;entryY=0.5;entryDx=0;entryDy=0;" edge="1" parent="1" target="WdoRWkK-8LCAY7LpiJfi-89">
          <mxGeometry width="50" height="50" relative="1" as="geometry">
            <mxPoint x="193" y="947" as="sourcePoint" />
            <mxPoint x="499" y="877" as="targetPoint" />
          </mxGeometry>
        </mxCell>
        <mxCell id="YFDpQ5L5FmxyyaYrbYLm-17" value="" style="endArrow=none;html=1;rounded=0;entryX=0;entryY=0.5;entryDx=0;entryDy=0;" edge="1" parent="1" target="WdoRWkK-8LCAY7LpiJfi-91">
          <mxGeometry width="50" height="50" relative="1" as="geometry">
            <mxPoint x="192" y="947" as="sourcePoint" />
            <mxPoint x="509" y="939" as="targetPoint" />
          </mxGeometry>
        </mxCell>
        <mxCell id="YFDpQ5L5FmxyyaYrbYLm-18" value="" style="endArrow=none;html=1;rounded=0;entryX=0;entryY=0.5;entryDx=0;entryDy=0;" edge="1" parent="1" target="WdoRWkK-8LCAY7LpiJfi-106">
          <mxGeometry width="50" height="50" relative="1" as="geometry">
            <mxPoint x="193" y="947" as="sourcePoint" />
            <mxPoint x="520" y="1040" as="targetPoint" />
          </mxGeometry>
        </mxCell>
        <mxCell id="YFDpQ5L5FmxyyaYrbYLm-19" value="" style="endArrow=none;html=1;rounded=0;entryX=0;entryY=0.5;entryDx=0;entryDy=0;" edge="1" parent="1" target="WdoRWkK-8LCAY7LpiJfi-125">
          <mxGeometry width="50" height="50" relative="1" as="geometry">
            <mxPoint x="196" y="946" as="sourcePoint" />
            <mxPoint x="500" y="1210" as="targetPoint" />
          </mxGeometry>
        </mxCell>
        <mxCell id="YFDpQ5L5FmxyyaYrbYLm-20" value="" style="endArrow=none;html=1;rounded=0;entryX=0;entryY=0.5;entryDx=0;entryDy=0;" edge="1" parent="1" target="WdoRWkK-8LCAY7LpiJfi-136">
          <mxGeometry width="50" height="50" relative="1" as="geometry">
            <mxPoint x="193" y="947" as="sourcePoint" />
            <mxPoint x="523" y="1458" as="targetPoint" />
          </mxGeometry>
        </mxCell>
        <mxCell id="YFDpQ5L5FmxyyaYrbYLm-21" value="" style="endArrow=none;html=1;rounded=0;entryX=0;entryY=0.5;entryDx=0;entryDy=0;" edge="1" parent="1" target="WdoRWkK-8LCAY7LpiJfi-138">
          <mxGeometry width="50" height="50" relative="1" as="geometry">
            <mxPoint x="193" y="948" as="sourcePoint" />
            <mxPoint x="520" y="1546" as="targetPoint" />
          </mxGeometry>
        </mxCell>
        <mxCell id="YFDpQ5L5FmxyyaYrbYLm-22" value="" style="endArrow=none;html=1;rounded=0;entryX=0;entryY=0.5;entryDx=0;entryDy=0;" edge="1" parent="1" target="WdoRWkK-8LCAY7LpiJfi-148">
          <mxGeometry width="50" height="50" relative="1" as="geometry">
            <mxPoint x="192" y="947" as="sourcePoint" />
            <mxPoint x="520" y="1609" as="targetPoint" />
          </mxGeometry>
        </mxCell>
        <mxCell id="YFDpQ5L5FmxyyaYrbYLm-24" value="" style="endArrow=none;html=1;rounded=0;entryX=0;entryY=0.5;entryDx=0;entryDy=0;" edge="1" parent="1" target="WdoRWkK-8LCAY7LpiJfi-26">
          <mxGeometry width="50" height="50" relative="1" as="geometry">
            <mxPoint x="178" y="255" as="sourcePoint" />
            <mxPoint x="254" y="233" as="targetPoint" />
          </mxGeometry>
        </mxCell>
        <mxCell id="YFDpQ5L5FmxyyaYrbYLm-25" value="" style="endArrow=none;html=1;rounded=0;entryX=0;entryY=0.5;entryDx=0;entryDy=0;" edge="1" parent="1" target="WdoRWkK-8LCAY7LpiJfi-45">
          <mxGeometry width="50" height="50" relative="1" as="geometry">
            <mxPoint x="177" y="256" as="sourcePoint" />
            <mxPoint x="400" y="225" as="targetPoint" />
          </mxGeometry>
        </mxCell>
        <mxCell id="YFDpQ5L5FmxyyaYrbYLm-26" value="" style="endArrow=none;html=1;rounded=0;entryX=0;entryY=0.5;entryDx=0;entryDy=0;" edge="1" parent="1" target="WdoRWkK-8LCAY7LpiJfi-57">
          <mxGeometry width="50" height="50" relative="1" as="geometry">
            <mxPoint x="179" y="256" as="sourcePoint" />
            <mxPoint x="460" y="326" as="targetPoint" />
          </mxGeometry>
        </mxCell>
        <mxCell id="YFDpQ5L5FmxyyaYrbYLm-27" value="" style="endArrow=none;html=1;rounded=0;entryX=0;entryY=0.5;entryDx=0;entryDy=0;" edge="1" parent="1" target="WdoRWkK-8LCAY7LpiJfi-64">
          <mxGeometry width="50" height="50" relative="1" as="geometry">
            <mxPoint x="176" y="252" as="sourcePoint" />
            <mxPoint x="464" y="470" as="targetPoint" />
          </mxGeometry>
        </mxCell>
        <mxCell id="YFDpQ5L5FmxyyaYrbYLm-28" value="" style="endArrow=none;html=1;rounded=0;entryX=0;entryY=0.5;entryDx=0;entryDy=0;" edge="1" parent="1" target="WdoRWkK-8LCAY7LpiJfi-74">
          <mxGeometry width="50" height="50" relative="1" as="geometry">
            <mxPoint x="179" y="255" as="sourcePoint" />
            <mxPoint x="432" y="605" as="targetPoint" />
          </mxGeometry>
        </mxCell>
        <mxCell id="YFDpQ5L5FmxyyaYrbYLm-29" value="" style="endArrow=none;html=1;rounded=0;entryX=0;entryY=0.5;entryDx=0;entryDy=0;" edge="1" parent="1" target="WdoRWkK-8LCAY7LpiJfi-159">
          <mxGeometry width="50" height="50" relative="1" as="geometry">
            <mxPoint x="178" y="257" as="sourcePoint" />
            <mxPoint x="450" y="704" as="targetPoint" />
          </mxGeometry>
        </mxCell>
        <mxCell id="QJgsS65g2MN-_L5WZAtN-3" value="donner avis" style="ellipse;whiteSpace=wrap;html=1;fillColor=#e1d5e7;strokeColor=#9673a6;" vertex="1" parent="1">
          <mxGeometry x="324" y="2276" width="140" height="40" as="geometry" />
        </mxCell>
        <mxCell id="QJgsS65g2MN-_L5WZAtN-7" value="" style="endArrow=none;html=1;rounded=0;entryX=0;entryY=0.5;entryDx=0;entryDy=0;" edge="1" parent="1" target="WdoRWkK-8LCAY7LpiJfi-195">
          <mxGeometry width="50" height="50" relative="1" as="geometry">
            <mxPoint x="202" y="2202" as="sourcePoint" />
            <mxPoint x="383" y="2246" as="targetPoint" />
          </mxGeometry>
        </mxCell>
        <mxCell id="QJgsS65g2MN-_L5WZAtN-9" value="" style="endArrow=none;html=1;rounded=0;entryX=0.031;entryY=0.547;entryDx=0;entryDy=0;entryPerimeter=0;" edge="1" parent="1" target="QJgsS65g2MN-_L5WZAtN-3">
          <mxGeometry width="50" height="50" relative="1" as="geometry">
            <mxPoint x="202" y="2204" as="sourcePoint" />
            <mxPoint x="338" y="2258" as="targetPoint" />
          </mxGeometry>
        </mxCell>
        <mxCell id="QJgsS65g2MN-_L5WZAtN-10" value="Voir les annonce" style="ellipse;whiteSpace=wrap;html=1;fillColor=#e1d5e7;strokeColor=#9673a6;" vertex="1" parent="1">
          <mxGeometry x="332" y="2650" width="140" height="40" as="geometry" />
        </mxCell>
        <mxCell id="QJgsS65g2MN-_L5WZAtN-11" value="" style="endArrow=block;endSize=16;endFill=0;html=1;rounded=0;" edge="1" parent="1">
          <mxGeometry width="160" relative="1" as="geometry">
            <mxPoint x="139.09" y="2491" as="sourcePoint" />
            <mxPoint x="139.09" y="2579" as="targetPoint" />
          </mxGeometry>
        </mxCell>
        <mxCell id="QJgsS65g2MN-_L5WZAtN-12" value="" style="endArrow=none;html=1;rounded=0;entryX=0;entryY=0.632;entryDx=0;entryDy=0;entryPerimeter=0;" edge="1" parent="1" target="WdoRWkK-8LCAY7LpiJfi-200">
          <mxGeometry width="50" height="50" relative="1" as="geometry">
            <mxPoint x="198" y="2628" as="sourcePoint" />
            <mxPoint x="450" y="2602" as="targetPoint" />
          </mxGeometry>
        </mxCell>
        <mxCell id="QJgsS65g2MN-_L5WZAtN-13" value="" style="endArrow=none;html=1;rounded=0;entryX=0.051;entryY=0.703;entryDx=0;entryDy=0;entryPerimeter=0;" edge="1" parent="1" target="QJgsS65g2MN-_L5WZAtN-10">
          <mxGeometry width="50" height="50" relative="1" as="geometry">
            <mxPoint x="197" y="2628" as="sourcePoint" />
            <mxPoint x="336" y="2619" as="targetPoint" />
          </mxGeometry>
        </mxCell>
        <mxCell id="QJgsS65g2MN-_L5WZAtN-14" value="" style="endArrow=none;html=1;rounded=0;" edge="1" parent="1" target="WdoRWkK-8LCAY7LpiJfi-196">
          <mxGeometry width="50" height="50" relative="1" as="geometry">
            <mxPoint x="200" y="2425" as="sourcePoint" />
            <mxPoint x="475" y="2384" as="targetPoint" />
          </mxGeometry>
        </mxCell>
        <mxCell id="QJgsS65g2MN-_L5WZAtN-15" value="" style="endArrow=none;html=1;rounded=0;" edge="1" parent="1" target="WdoRWkK-8LCAY7LpiJfi-199">
          <mxGeometry width="50" height="50" relative="1" as="geometry">
            <mxPoint x="199" y="2426" as="sourcePoint" />
            <mxPoint x="331" y="2411" as="targetPoint" />
          </mxGeometry>
        </mxCell>
        <mxCell id="QJgsS65g2MN-_L5WZAtN-16" value="&amp;lt;&amp;lt;include&amp;gt;&amp;gt;" style="endArrow=open;endSize=12;dashed=1;html=1;rounded=0;exitX=0.966;exitY=0.706;exitDx=0;exitDy=0;exitPerimeter=0;" edge="1" parent="1">
          <mxGeometry x="0.2591" width="160" relative="1" as="geometry">
            <mxPoint x="650" y="1839" as="sourcePoint" />
            <mxPoint x="1271" y="425" as="targetPoint" />
            <mxPoint x="1" as="offset" />
            <Array as="points">
              <mxPoint x="739" y="1900" />
              <mxPoint x="855" y="1920" />
              <mxPoint x="960" y="1883" />
              <mxPoint x="1278" y="1737" />
              <mxPoint x="1380" y="1383" />
              <mxPoint x="1680" y="837" />
              <mxPoint x="1606" y="644" />
            </Array>
          </mxGeometry>
        </mxCell>
        <mxCell id="QJgsS65g2MN-_L5WZAtN-17" value="&amp;lt;&amp;lt;include&amp;gt;&amp;gt;" style="endArrow=open;endSize=12;dashed=1;html=1;rounded=0;exitX=0.966;exitY=0.706;exitDx=0;exitDy=0;exitPerimeter=0;" edge="1" parent="1">
          <mxGeometry x="0.2591" width="160" relative="1" as="geometry">
            <mxPoint x="710" y="1923" as="sourcePoint" />
            <mxPoint x="1276" y="418" as="targetPoint" />
            <mxPoint x="1" as="offset" />
            <Array as="points">
              <mxPoint x="808" y="1943" />
              <mxPoint x="919" y="1930" />
              <mxPoint x="1020" y="1967" />
              <mxPoint x="1338" y="1821" />
              <mxPoint x="1440" y="1467" />
              <mxPoint x="1740" y="921" />
              <mxPoint x="1673" y="620" />
            </Array>
          </mxGeometry>
        </mxCell>
        <mxCell id="QJgsS65g2MN-_L5WZAtN-18" value="&amp;lt;&amp;lt;include&amp;gt;&amp;gt;" style="endArrow=open;endSize=12;dashed=1;html=1;rounded=0;exitX=0.966;exitY=0.706;exitDx=0;exitDy=0;exitPerimeter=0;" edge="1" parent="1">
          <mxGeometry x="0.2591" width="160" relative="1" as="geometry">
            <mxPoint x="653" y="2040" as="sourcePoint" />
            <mxPoint x="1281" y="414" as="targetPoint" />
            <mxPoint x="1" as="offset" />
            <Array as="points">
              <mxPoint x="725" y="2113" />
              <mxPoint x="808" y="2122" />
              <mxPoint x="921" y="2154" />
              <mxPoint x="1063" y="2105" />
              <mxPoint x="1281" y="1938" />
              <mxPoint x="1669" y="1540" />
              <mxPoint x="1847" y="535" />
              <mxPoint x="1636" y="463" />
            </Array>
          </mxGeometry>
        </mxCell>
        <mxCell id="QJgsS65g2MN-_L5WZAtN-19" value="&amp;lt;&amp;lt;include&amp;gt;&amp;gt;" style="endArrow=open;endSize=12;dashed=1;html=1;rounded=0;exitX=0.966;exitY=0.706;exitDx=0;exitDy=0;exitPerimeter=0;entryX=0.5;entryY=0;entryDx=0;entryDy=0;" edge="1" parent="1" target="WdoRWkK-8LCAY7LpiJfi-53">
          <mxGeometry x="0.2591" width="160" relative="1" as="geometry">
            <mxPoint x="594" y="2141" as="sourcePoint" />
            <mxPoint x="1222" y="515" as="targetPoint" />
            <mxPoint x="1" as="offset" />
            <Array as="points">
              <mxPoint x="666" y="2214" />
              <mxPoint x="749" y="2223" />
              <mxPoint x="862" y="2255" />
              <mxPoint x="1004" y="2206" />
              <mxPoint x="1222" y="2039" />
              <mxPoint x="1971" y="1403" />
              <mxPoint x="2054" y="773" />
              <mxPoint x="1855" y="380" />
              <mxPoint x="1349" y="359" />
            </Array>
          </mxGeometry>
        </mxCell>
        <mxCell id="QJgsS65g2MN-_L5WZAtN-20" value="&amp;lt;&amp;lt;include&amp;gt;&amp;gt;" style="endArrow=open;endSize=12;dashed=1;html=1;rounded=0;exitX=0.966;exitY=0.706;exitDx=0;exitDy=0;exitPerimeter=0;" edge="1" parent="1">
          <mxGeometry x="0.2591" width="160" relative="1" as="geometry">
            <mxPoint x="440" y="2201" as="sourcePoint" />
            <mxPoint x="1193" y="386" as="targetPoint" />
            <mxPoint x="1" as="offset" />
            <Array as="points">
              <mxPoint x="512" y="2274" />
              <mxPoint x="595" y="2283" />
              <mxPoint x="708" y="2315" />
              <mxPoint x="850" y="2266" />
              <mxPoint x="1227" y="2201" />
              <mxPoint x="1770" y="1793" />
              <mxPoint x="2110" y="1445" />
              <mxPoint x="2183" y="730" />
              <mxPoint x="1960" y="351" />
              <mxPoint x="1592" y="291" />
              <mxPoint x="1207" y="386" />
            </Array>
          </mxGeometry>
        </mxCell>
        <mxCell id="QJgsS65g2MN-_L5WZAtN-21" value="&amp;lt;&amp;lt;include&amp;gt;&amp;gt;" style="endArrow=open;endSize=12;dashed=1;html=1;rounded=0;exitX=0.966;exitY=0.706;exitDx=0;exitDy=0;exitPerimeter=0;" edge="1" parent="1">
          <mxGeometry x="0.2591" width="160" relative="1" as="geometry">
            <mxPoint x="426" y="2460" as="sourcePoint" />
            <mxPoint x="1235" y="384" as="targetPoint" />
            <mxPoint x="1" as="offset" />
            <Array as="points">
              <mxPoint x="498" y="2533" />
              <mxPoint x="581" y="2542" />
              <mxPoint x="694" y="2574" />
              <mxPoint x="836" y="2525" />
              <mxPoint x="1213" y="2460" />
              <mxPoint x="1756" y="2052" />
              <mxPoint x="2096" y="1704" />
              <mxPoint x="2331" y="1236" />
              <mxPoint x="2331" y="813" />
              <mxPoint x="2224" y="392" />
              <mxPoint x="1833" y="201" />
              <mxPoint x="1428" y="252" />
            </Array>
          </mxGeometry>
        </mxCell>
        <mxCell id="QJgsS65g2MN-_L5WZAtN-22" value="&amp;lt;&amp;lt;include&amp;gt;&amp;gt;" style="endArrow=open;endSize=12;dashed=1;html=1;rounded=0;exitX=0.966;exitY=0.706;exitDx=0;exitDy=0;exitPerimeter=0;entryX=1;entryY=0;entryDx=0;entryDy=0;" edge="1" parent="1" target="WdoRWkK-8LCAY7LpiJfi-53">
          <mxGeometry x="0.2591" width="160" relative="1" as="geometry">
            <mxPoint x="450" y="2310" as="sourcePoint" />
            <mxPoint x="1203" y="495" as="targetPoint" />
            <mxPoint x="1" as="offset" />
            <Array as="points">
              <mxPoint x="522" y="2383" />
              <mxPoint x="605" y="2392" />
              <mxPoint x="718" y="2424" />
              <mxPoint x="860" y="2375" />
              <mxPoint x="1237" y="2310" />
              <mxPoint x="1780" y="1902" />
              <mxPoint x="2161" y="1516" />
              <mxPoint x="2246" y="1164" />
              <mxPoint x="2246" y="730" />
              <mxPoint x="2072" y="362" />
              <mxPoint x="1602" y="266" />
              <mxPoint x="1274" y="398" />
              <mxPoint x="1247" y="398" />
            </Array>
          </mxGeometry>
        </mxCell>
        <mxCell id="QJgsS65g2MN-_L5WZAtN-23" value="&amp;lt;&amp;lt;include&amp;gt;&amp;gt;" style="endArrow=open;endSize=12;dashed=1;html=1;rounded=0;exitX=0.966;exitY=0.706;exitDx=0;exitDy=0;exitPerimeter=0;" edge="1" parent="1">
          <mxGeometry x="0.2591" width="160" relative="1" as="geometry">
            <mxPoint x="457" y="2604" as="sourcePoint" />
            <mxPoint x="1191" y="387" as="targetPoint" />
            <mxPoint x="1" as="offset" />
            <Array as="points">
              <mxPoint x="529" y="2677" />
              <mxPoint x="612" y="2686" />
              <mxPoint x="725" y="2718" />
              <mxPoint x="867" y="2669" />
              <mxPoint x="1244" y="2604" />
              <mxPoint x="1787" y="2196" />
              <mxPoint x="2127" y="1848" />
              <mxPoint x="2362" y="1380" />
              <mxPoint x="2362" y="957" />
              <mxPoint x="2277" y="339" />
              <mxPoint x="1765" y="172" />
              <mxPoint x="1381" y="246" />
            </Array>
          </mxGeometry>
        </mxCell>
        <mxCell id="QJgsS65g2MN-_L5WZAtN-24" value="&amp;lt;&amp;lt;include&amp;gt;&amp;gt;" style="endArrow=open;endSize=12;dashed=1;html=1;rounded=0;exitX=0.966;exitY=0.706;exitDx=0;exitDy=0;exitPerimeter=0;entryX=0.319;entryY=0.094;entryDx=0;entryDy=0;entryPerimeter=0;" edge="1" parent="1" target="WdoRWkK-8LCAY7LpiJfi-53">
          <mxGeometry x="0.2591" width="160" relative="1" as="geometry">
            <mxPoint x="464" y="2679" as="sourcePoint" />
            <mxPoint x="1198" y="462" as="targetPoint" />
            <mxPoint x="1" as="offset" />
            <Array as="points">
              <mxPoint x="536" y="2752" />
              <mxPoint x="619" y="2761" />
              <mxPoint x="874" y="2744" />
              <mxPoint x="1251" y="2679" />
              <mxPoint x="1794" y="2271" />
              <mxPoint x="2134" y="1923" />
              <mxPoint x="2369" y="1455" />
              <mxPoint x="2403" y="609" />
              <mxPoint x="2320" y="247" />
              <mxPoint x="1526" y="141" />
              <mxPoint x="1238" y="265" />
            </Array>
          </mxGeometry>
        </mxCell>
      </root>
    </mxGraphModel>
  </diagram>
  <diagram id="bsq4e1drveWw1eM4ehdw" name="Page-3">
    <mxGraphModel dx="5989" dy="81823" grid="1" gridSize="10" guides="1" tooltips="1" connect="1" arrows="1" fold="1" page="1" pageScale="1" pageWidth="2500" pageHeight="80000" math="0" shadow="0">
      <root>
        <mxCell id="0" />
        <mxCell id="1" parent="0" />
        <mxCell id="lmJ9ai7L8Va1JpHMxE3z-5" value="&lt;p style=&quot;margin:0px;margin-top:4px;text-align:center;&quot;&gt;&lt;b&gt;User&lt;/b&gt;&lt;/p&gt;&lt;hr size=&quot;1&quot; style=&quot;border-style:solid;&quot;&gt;&lt;p style=&quot;margin:0px;margin-left:4px;&quot;&gt;&lt;span style=&quot;background-color: transparent; color: light-dark(rgb(0, 0, 0), rgb(255, 255, 255));&quot;&gt;&amp;nbsp; #matricule:String&lt;/span&gt;&lt;/p&gt;&lt;p style=&quot;margin:0px;margin-left:4px;&quot;&gt;&lt;span style=&quot;background-color: transparent; color: light-dark(rgb(0, 0, 0), rgb(255, 255, 255));&quot;&gt;&amp;nbsp; #nom: String&lt;/span&gt;&lt;/p&gt;&lt;p style=&quot;margin:0px;margin-left:4px;&quot;&gt;&amp;nbsp; #prenom: String&lt;/p&gt;&lt;p style=&quot;margin:0px;margin-left:4px;&quot;&gt;&amp;nbsp; /nom_complete:String&lt;/p&gt;&lt;p style=&quot;margin:0px;margin-left:4px;&quot;&gt;&amp;nbsp; #email_personnel: String&lt;/p&gt;&lt;p style=&quot;margin:0px;margin-left:4px;&quot;&gt;&amp;nbsp; #email_proffessionnel&lt;/p&gt;&lt;p style=&quot;margin:0px;margin-left:4px;&quot;&gt;&amp;nbsp; #password: String&lt;/p&gt;&lt;p style=&quot;margin:0px;margin-left:4px;&quot;&gt;&amp;nbsp; #post: Post&lt;/p&gt;&lt;p style=&quot;margin:0px;margin-left:4px;&quot;&gt;&amp;nbsp; #date_naissance :String&lt;/p&gt;&lt;p style=&quot;margin:0px;margin-left:4px;&quot;&gt;&amp;nbsp; /age:integer&lt;/p&gt;&lt;p style=&quot;margin:0px;margin-left:4px;&quot;&gt;&amp;nbsp; #tel:String&lt;/p&gt;&lt;hr size=&quot;1&quot; style=&quot;border-style:solid;&quot;&gt;&lt;p style=&quot;margin: 0px 0px 0px 4px;&quot;&gt;+login()&lt;/p&gt;&lt;p style=&quot;margin: 0px 0px 0px 4px;&quot;&gt;+logout()&lt;/p&gt;&lt;p style=&quot;margin: 0px 0px 0px 4px;&quot;&gt;+updateProfile()&lt;/p&gt;" style="verticalAlign=top;align=left;overflow=fill;html=1;whiteSpace=wrap;" vertex="1" parent="1">
          <mxGeometry x="390" y="-150" width="460" height="270" as="geometry" />
        </mxCell>
        <mxCell id="lmJ9ai7L8Va1JpHMxE3z-6" value="&lt;p style=&quot;margin:0px;margin-top:4px;text-align:center;&quot;&gt;&lt;b&gt;Administration&lt;/b&gt;&lt;/p&gt;&lt;hr size=&quot;1&quot; style=&quot;border-style:solid;&quot;&gt;&lt;p style=&quot;margin:0px;margin-left:4px;&quot;&gt;+validerEvenement()&lt;/p&gt;&lt;p style=&quot;margin:0px;margin-left:4px;&quot;&gt;+gererUtilisateurs()&lt;/p&gt;" style="verticalAlign=top;align=left;overflow=fill;html=1;whiteSpace=wrap;" vertex="1" parent="1">
          <mxGeometry x="100" y="220" width="190" height="160" as="geometry" />
        </mxCell>
        <mxCell id="lmJ9ai7L8Va1JpHMxE3z-7" value="&lt;p style=&quot;margin:0px;margin-top:4px;text-align:center;&quot;&gt;&lt;b&gt;Staf&lt;/b&gt;&lt;/p&gt;&lt;hr size=&quot;1&quot; style=&quot;border-style:solid;&quot;&gt;&lt;p style=&quot;margin:0px;margin-left:4px;&quot;&gt;&lt;/p&gt;&lt;p style=&quot;margin:0px;margin-left:4px;&quot;&gt;&lt;br&gt;&lt;/p&gt;" style="verticalAlign=top;align=left;overflow=fill;html=1;whiteSpace=wrap;" vertex="1" parent="1">
          <mxGeometry x="300" y="220" width="170" height="160" as="geometry" />
        </mxCell>
        <mxCell id="lmJ9ai7L8Va1JpHMxE3z-8" value="&lt;p style=&quot;margin:0px;margin-top:4px;text-align:center;&quot;&gt;&lt;b&gt;Etudiant&lt;/b&gt;&lt;/p&gt;&lt;hr size=&quot;1&quot; style=&quot;border-style:solid;&quot;&gt;&lt;p style=&quot;margin:0px;margin-left:4px;&quot;&gt;+suivreCours()&lt;/p&gt;&lt;p style=&quot;margin:0px;margin-left:4px;&quot;&gt;+consulterNotes()&lt;/p&gt;" style="verticalAlign=top;align=left;overflow=fill;html=1;whiteSpace=wrap;" vertex="1" parent="1">
          <mxGeometry x="490" y="220" width="170" height="160" as="geometry" />
        </mxCell>
        <mxCell id="lmJ9ai7L8Va1JpHMxE3z-9" value="&lt;p style=&quot;margin:0px;margin-top:4px;text-align:center;&quot;&gt;&lt;b&gt;Prof_fr&lt;/b&gt;&lt;/p&gt;&lt;hr size=&quot;1&quot; style=&quot;border-style:solid;&quot;&gt;&lt;p style=&quot;margin:0px;margin-left:4px;&quot;&gt;&lt;/p&gt;&lt;p style=&quot;margin:0px;margin-left:4px;&quot;&gt;&lt;span style=&quot;background-color: transparent; color: light-dark(rgb(0, 0, 0), rgb(255, 255, 255));&quot;&gt;&amp;nbsp;+creerCours()&lt;/span&gt;&lt;/p&gt;&lt;p style=&quot;margin:0px;margin-left:4px;&quot;&gt;&amp;nbsp;+evaluerEtudiants()&lt;/p&gt;" style="verticalAlign=top;align=left;overflow=fill;html=1;whiteSpace=wrap;" vertex="1" parent="1">
          <mxGeometry x="680" y="220" width="170" height="160" as="geometry" />
        </mxCell>
        <mxCell id="lmJ9ai7L8Va1JpHMxE3z-10" value="&lt;p style=&quot;margin:0px;margin-top:4px;text-align:center;&quot;&gt;&lt;b&gt;BDE&lt;/b&gt;&lt;/p&gt;&lt;hr size=&quot;1&quot; style=&quot;border-style:solid;&quot;&gt;&lt;p style=&quot;margin:0px;margin-left:4px;&quot;&gt;&lt;br&gt;&lt;/p&gt;" style="verticalAlign=top;align=left;overflow=fill;html=1;whiteSpace=wrap;" vertex="1" parent="1">
          <mxGeometry x="880" y="220" width="170" height="160" as="geometry" />
        </mxCell>
        <mxCell id="lmJ9ai7L8Va1JpHMxE3z-12" value="&lt;p style=&quot;margin:0px;margin-top:4px;text-align:center;&quot;&gt;&lt;b&gt;Cours_francais&lt;/b&gt;&lt;/p&gt;&lt;hr size=&quot;1&quot; style=&quot;border-style:solid;&quot;&gt;&lt;p style=&quot;margin:0px;margin-left:4px;&quot;&gt;&amp;nbsp; #niveau: String&lt;/p&gt;&lt;p style=&quot;margin:0px;margin-left:4px;&quot;&gt;&amp;nbsp; #titre: String&lt;/p&gt;&lt;p style=&quot;margin:0px;margin-left:4px;&quot;&gt;&amp;nbsp; #description: String&lt;/p&gt;&lt;p style=&quot;margin:0px;margin-left:4px;&quot;&gt;&amp;nbsp; #dateCreation: D&lt;/p&gt;&lt;hr size=&quot;1&quot; style=&quot;border-style:solid;&quot;&gt;&lt;p style=&quot;margin:0px;margin-left:4px;&quot;&gt;+ajouterCours()&lt;/p&gt;&lt;p style=&quot;margin:0px;margin-left:4px;&quot;&gt;+modifierCours()&lt;/p&gt;" style="verticalAlign=top;align=left;overflow=fill;html=1;whiteSpace=wrap;" vertex="1" parent="1">
          <mxGeometry x="570" y="510" width="270" height="170" as="geometry" />
        </mxCell>
        <mxCell id="lmJ9ai7L8Va1JpHMxE3z-13" value="&lt;p style=&quot;margin:0px;margin-top:4px;text-align:center;&quot;&gt;&lt;b&gt;Evenement_uploader&lt;/b&gt;&lt;/p&gt;&lt;hr size=&quot;1&quot; style=&quot;border-style:solid;&quot;&gt;&lt;p style=&quot;margin:0px;margin-left:4px;&quot;&gt;-titre: String&lt;/p&gt;&lt;p style=&quot;margin:0px;margin-left:4px;&quot;&gt;-description: String&lt;/p&gt;&lt;p style=&quot;margin:0px;margin-left:4px;&quot;&gt;-date: DateTime&lt;/p&gt;&lt;p style=&quot;margin:0px;margin-left:4px;&quot;&gt;-status: String&lt;/p&gt;&lt;hr size=&quot;1&quot; style=&quot;border-style:solid;&quot;&gt;&lt;p style=&quot;margin:0px;margin-left:4px;&quot;&gt;+upload()&lt;/p&gt;&lt;p style=&quot;margin:0px;margin-left:4px;&quot;&gt;+modifier()&lt;/p&gt;&lt;p style=&quot;margin:0px;margin-left:4px;&quot;&gt;+supprimer()&lt;/p&gt;" style="verticalAlign=top;align=left;overflow=fill;html=1;whiteSpace=wrap;" vertex="1" parent="1">
          <mxGeometry x="-580" y="520" width="270" height="170" as="geometry" />
        </mxCell>
        <mxCell id="lmJ9ai7L8Va1JpHMxE3z-14" value="&lt;p style=&quot;margin:0px;margin-top:4px;text-align:center;&quot;&gt;&lt;b&gt;Admit_YC&lt;/b&gt;&lt;/p&gt;&lt;hr size=&quot;1&quot; style=&quot;border-style:solid;&quot;&gt;&lt;p style=&quot;margin:0px;margin-left:4px;&quot;&gt;&lt;br&gt;&lt;/p&gt;&lt;hr size=&quot;1&quot; style=&quot;border-style:solid;&quot;&gt;&lt;p style=&quot;margin:0px;margin-left:4px;&quot;&gt;&lt;br&gt;&lt;/p&gt;" style="verticalAlign=top;align=left;overflow=fill;html=1;whiteSpace=wrap;" vertex="1" parent="1">
          <mxGeometry x="270" y="630" width="270" height="170" as="geometry" />
        </mxCell>
        <mxCell id="lmJ9ai7L8Va1JpHMxE3z-15" value="&lt;p style=&quot;margin:0px;margin-top:4px;text-align:center;&quot;&gt;&lt;b&gt;upload_evenement_video&lt;/b&gt;&lt;/p&gt;&lt;hr size=&quot;1&quot; style=&quot;border-style:solid;&quot;&gt;&lt;p style=&quot;margin:0px;margin-left:4px;&quot;&gt;&amp;nbsp;#titre: String&lt;/p&gt;&lt;p style=&quot;margin:0px;margin-left:4px;&quot;&gt;&amp;nbsp;#url: String&lt;/p&gt;&lt;p style=&quot;margin:0px;margin-left:4px;&quot;&gt;&amp;nbsp;#dateUpload: DateTime&lt;/p&gt;&lt;hr size=&quot;1&quot; style=&quot;border-style:solid;&quot;&gt;&lt;p style=&quot;margin:0px;margin-left:4px;&quot;&gt;+uploadVideo()&lt;/p&gt;&lt;p style=&quot;margin:0px;margin-left:4px;&quot;&gt;+validerVideo()&lt;/p&gt;" style="verticalAlign=top;align=left;overflow=fill;html=1;whiteSpace=wrap;" vertex="1" parent="1">
          <mxGeometry x="1180" y="520" width="270" height="170" as="geometry" />
        </mxCell>
        <mxCell id="lmJ9ai7L8Va1JpHMxE3z-16" value="&lt;p style=&quot;margin:0px;margin-top:4px;text-align:center;&quot;&gt;&lt;b&gt;annonce_evenement&lt;/b&gt;&lt;/p&gt;&lt;hr size=&quot;1&quot; style=&quot;border-style:solid;&quot;&gt;&lt;p style=&quot;margin:0px;margin-left:4px;&quot;&gt;&lt;br&gt;&lt;/p&gt;&lt;hr size=&quot;1&quot; style=&quot;border-style:solid;&quot;&gt;&lt;p style=&quot;margin:0px;margin-left:4px;&quot;&gt;&lt;br&gt;&lt;/p&gt;" style="verticalAlign=top;align=left;overflow=fill;html=1;whiteSpace=wrap;" vertex="1" parent="1">
          <mxGeometry x="-400" y="750" width="270" height="170" as="geometry" />
        </mxCell>
        <mxCell id="lmJ9ai7L8Va1JpHMxE3z-17" value="" style="endArrow=block;endSize=16;endFill=0;html=1;rounded=0;entryX=0.112;entryY=1.009;entryDx=0;entryDy=0;entryPerimeter=0;exitX=0.5;exitY=0;exitDx=0;exitDy=0;" edge="1" parent="1" source="lmJ9ai7L8Va1JpHMxE3z-6" target="lmJ9ai7L8Va1JpHMxE3z-5">
          <mxGeometry width="160" relative="1" as="geometry">
            <mxPoint x="170" y="210" as="sourcePoint" />
            <mxPoint x="330" y="210" as="targetPoint" />
          </mxGeometry>
        </mxCell>
        <mxCell id="lmJ9ai7L8Va1JpHMxE3z-18" value="" style="endArrow=block;endSize=16;endFill=0;html=1;rounded=0;entryX=0.25;entryY=1;entryDx=0;entryDy=0;exitX=0.5;exitY=0;exitDx=0;exitDy=0;" edge="1" parent="1" source="lmJ9ai7L8Va1JpHMxE3z-7" target="lmJ9ai7L8Va1JpHMxE3z-5">
          <mxGeometry width="160" relative="1" as="geometry">
            <mxPoint x="300" y="220" as="sourcePoint" />
            <mxPoint x="547" y="122" as="targetPoint" />
          </mxGeometry>
        </mxCell>
        <mxCell id="lmJ9ai7L8Va1JpHMxE3z-19" value="" style="endArrow=block;endSize=16;endFill=0;html=1;rounded=0;entryX=0.402;entryY=0.992;entryDx=0;entryDy=0;entryPerimeter=0;exitX=0.5;exitY=0;exitDx=0;exitDy=0;" edge="1" parent="1" source="lmJ9ai7L8Va1JpHMxE3z-8" target="lmJ9ai7L8Va1JpHMxE3z-5">
          <mxGeometry width="160" relative="1" as="geometry">
            <mxPoint x="570" y="210" as="sourcePoint" />
            <mxPoint x="515" y="130" as="targetPoint" />
          </mxGeometry>
        </mxCell>
        <mxCell id="lmJ9ai7L8Va1JpHMxE3z-20" value="" style="endArrow=block;endSize=16;endFill=0;html=1;rounded=0;entryX=0.402;entryY=0.992;entryDx=0;entryDy=0;entryPerimeter=0;exitX=0.5;exitY=0;exitDx=0;exitDy=0;" edge="1" parent="1" source="lmJ9ai7L8Va1JpHMxE3z-9">
          <mxGeometry width="160" relative="1" as="geometry">
            <mxPoint x="700" y="220" as="sourcePoint" />
            <mxPoint x="700" y="118" as="targetPoint" />
          </mxGeometry>
        </mxCell>
        <mxCell id="lmJ9ai7L8Va1JpHMxE3z-21" value="" style="endArrow=block;endSize=16;endFill=0;html=1;rounded=0;entryX=0.943;entryY=0.999;entryDx=0;entryDy=0;entryPerimeter=0;exitX=0.5;exitY=0;exitDx=0;exitDy=0;" edge="1" parent="1" source="lmJ9ai7L8Va1JpHMxE3z-10" target="lmJ9ai7L8Va1JpHMxE3z-5">
          <mxGeometry width="160" relative="1" as="geometry">
            <mxPoint x="775" y="230" as="sourcePoint" />
            <mxPoint x="710" y="128" as="targetPoint" />
          </mxGeometry>
        </mxCell>
        <mxCell id="lmJ9ai7L8Va1JpHMxE3z-22" value="&lt;p style=&quot;margin:0px;margin-top:4px;text-align:center;&quot;&gt;&lt;b&gt;Camerman&lt;/b&gt;&lt;/p&gt;&lt;hr size=&quot;1&quot; style=&quot;border-style:solid;&quot;&gt;&lt;p style=&quot;margin:0px;margin-left:4px;&quot;&gt;&lt;/p&gt;&lt;p style=&quot;margin:0px;margin-left:4px;&quot;&gt;&lt;br&gt;&lt;/p&gt;" style="verticalAlign=top;align=left;overflow=fill;html=1;whiteSpace=wrap;" vertex="1" parent="1">
          <mxGeometry x="1090" y="220" width="170" height="160" as="geometry" />
        </mxCell>
        <mxCell id="lmJ9ai7L8Va1JpHMxE3z-23" value="" style="endArrow=block;endSize=16;endFill=0;html=1;rounded=0;entryX=1;entryY=0.75;entryDx=0;entryDy=0;exitX=0.584;exitY=0.012;exitDx=0;exitDy=0;exitPerimeter=0;" edge="1" parent="1" source="lmJ9ai7L8Va1JpHMxE3z-22" target="lmJ9ai7L8Va1JpHMxE3z-5">
          <mxGeometry width="160" relative="1" as="geometry">
            <mxPoint x="975" y="230" as="sourcePoint" />
            <mxPoint x="834" y="130" as="targetPoint" />
          </mxGeometry>
        </mxCell>
        <mxCell id="lmJ9ai7L8Va1JpHMxE3z-24" value="" style="endArrow=none;html=1;rounded=0;entryX=0.394;entryY=0.999;entryDx=0;entryDy=0;entryPerimeter=0;exitX=0.466;exitY=0.003;exitDx=0;exitDy=0;exitPerimeter=0;" edge="1" parent="1" source="lmJ9ai7L8Va1JpHMxE3z-12" target="lmJ9ai7L8Va1JpHMxE3z-9">
          <mxGeometry width="50" height="50" relative="1" as="geometry">
            <mxPoint x="590" y="500" as="sourcePoint" />
            <mxPoint x="640" y="450" as="targetPoint" />
          </mxGeometry>
        </mxCell>
        <mxCell id="lmJ9ai7L8Va1JpHMxE3z-26" value="0..*" style="text;html=1;align=center;verticalAlign=middle;resizable=0;points=[];autosize=1;strokeColor=none;fillColor=none;" vertex="1" parent="1">
          <mxGeometry x="700" y="480" width="40" height="30" as="geometry" />
        </mxCell>
        <mxCell id="lmJ9ai7L8Va1JpHMxE3z-27" value="1..1" style="text;html=1;align=center;verticalAlign=middle;resizable=0;points=[];autosize=1;strokeColor=none;fillColor=none;" vertex="1" parent="1">
          <mxGeometry x="740" y="380" width="40" height="30" as="geometry" />
        </mxCell>
        <mxCell id="lmJ9ai7L8Va1JpHMxE3z-28" value="&lt;p style=&quot;margin:0px;margin-top:4px;text-align:center;&quot;&gt;&lt;b&gt;Live_Stream&lt;/b&gt;&lt;/p&gt;&lt;hr size=&quot;1&quot; style=&quot;border-style:solid;&quot;&gt;&lt;p style=&quot;margin:0px;margin-left:4px;&quot;&gt;&amp;nbsp;-titre: String&lt;/p&gt;&lt;p style=&quot;margin:0px;margin-left:4px;&quot;&gt;&amp;nbsp;-date: DateTime&lt;/p&gt;&lt;p style=&quot;margin:0px;margin-left:4px;&quot;&gt;&amp;nbsp;-status: String&lt;/p&gt;&lt;p style=&quot;margin:0px;margin-left:4px;&quot;&gt;&amp;nbsp;-url: String&lt;/p&gt;&lt;div&gt;&lt;br&gt;&lt;/div&gt;&lt;hr size=&quot;1&quot; style=&quot;border-style:solid;&quot;&gt;&lt;p style=&quot;margin:0px;margin-left:4px;&quot;&gt;&amp;nbsp;+demarrer()&lt;/p&gt;&lt;p style=&quot;margin:0px;margin-left:4px;&quot;&gt;&amp;nbsp;+arreter()&lt;/p&gt;&lt;p style=&quot;margin:0px;margin-left:4px;&quot;&gt;&amp;nbsp;+enregistrer()&lt;/p&gt;" style="verticalAlign=top;align=left;overflow=fill;html=1;whiteSpace=wrap;" vertex="1" parent="1">
          <mxGeometry x="-490" y="70" width="270" height="170" as="geometry" />
        </mxCell>
        <mxCell id="lmJ9ai7L8Va1JpHMxE3z-34" value="&lt;p style=&quot;margin:0px;margin-top:4px;text-align:center;&quot;&gt;&lt;b&gt;admit_Stream&lt;/b&gt;&lt;/p&gt;&lt;hr size=&quot;1&quot; style=&quot;border-style:solid;&quot;&gt;&lt;p style=&quot;margin:0px;margin-left:4px;&quot;&gt;-configuration: String&lt;/p&gt;&lt;hr size=&quot;1&quot; style=&quot;border-style:solid;&quot;&gt;&lt;p style=&quot;margin:0px;margin-left:4px;&quot;&gt;+gererStream()&lt;/p&gt;&lt;p style=&quot;margin:0px;margin-left:4px;&quot;&gt;+modererContenu()&lt;/p&gt;" style="verticalAlign=top;align=left;overflow=fill;html=1;whiteSpace=wrap;" vertex="1" parent="1">
          <mxGeometry x="-390" y="-250" width="150" height="110" as="geometry" />
        </mxCell>
        <mxCell id="lmJ9ai7L8Va1JpHMxE3z-41" value="" style="endArrow=none;html=1;rounded=0;entryX=0;entryY=0.5;entryDx=0;entryDy=0;exitX=0.424;exitY=0;exitDx=0;exitDy=0;exitPerimeter=0;" edge="1" parent="1" source="lmJ9ai7L8Va1JpHMxE3z-28" target="lmJ9ai7L8Va1JpHMxE3z-5">
          <mxGeometry width="50" height="50" relative="1" as="geometry">
            <mxPoint x="130" y="160" as="sourcePoint" />
            <mxPoint x="180" y="110" as="targetPoint" />
          </mxGeometry>
        </mxCell>
        <mxCell id="lmJ9ai7L8Va1JpHMxE3z-42" value="" style="endArrow=none;dashed=1;html=1;rounded=0;" edge="1" parent="1" source="lmJ9ai7L8Va1JpHMxE3z-34">
          <mxGeometry width="50" height="50" relative="1" as="geometry">
            <mxPoint x="130" y="160" as="sourcePoint" />
            <mxPoint x="50" y="20" as="targetPoint" />
          </mxGeometry>
        </mxCell>
        <mxCell id="lmJ9ai7L8Va1JpHMxE3z-43" value="&lt;p style=&quot;margin:0px;margin-top:4px;text-align:center;&quot;&gt;&lt;b&gt;No_admit_sas&lt;/b&gt;&lt;/p&gt;&lt;hr size=&quot;1&quot; style=&quot;border-style:solid;&quot;&gt;&lt;p style=&quot;margin:0px;margin-left:4px;&quot;&gt;&lt;br&gt;&lt;/p&gt;&lt;hr size=&quot;1&quot; style=&quot;border-style:solid;&quot;&gt;&lt;p style=&quot;margin:0px;margin-left:4px;&quot;&gt;&lt;br&gt;&lt;/p&gt;" style="verticalAlign=top;align=left;overflow=fill;html=1;whiteSpace=wrap;" vertex="1" parent="1">
          <mxGeometry x="-30" y="630" width="270" height="170" as="geometry" />
        </mxCell>
        <mxCell id="lmJ9ai7L8Va1JpHMxE3z-44" value="" style="endArrow=block;endSize=16;endFill=0;html=1;rounded=0;entryX=0.25;entryY=1;entryDx=0;entryDy=0;exitX=0.5;exitY=0;exitDx=0;exitDy=0;" edge="1" parent="1" source="lmJ9ai7L8Va1JpHMxE3z-43" target="lmJ9ai7L8Va1JpHMxE3z-8">
          <mxGeometry width="160" relative="1" as="geometry">
            <mxPoint x="205" y="230" as="sourcePoint" />
            <mxPoint x="452" y="132" as="targetPoint" />
          </mxGeometry>
        </mxCell>
        <mxCell id="lmJ9ai7L8Va1JpHMxE3z-45" value="" style="endArrow=block;endSize=16;endFill=0;html=1;rounded=0;entryX=0.307;entryY=0.99;entryDx=0;entryDy=0;exitX=0.556;exitY=0;exitDx=0;exitDy=0;exitPerimeter=0;entryPerimeter=0;" edge="1" parent="1" source="lmJ9ai7L8Va1JpHMxE3z-14" target="lmJ9ai7L8Va1JpHMxE3z-8">
          <mxGeometry width="160" relative="1" as="geometry">
            <mxPoint x="115" y="640" as="sourcePoint" />
            <mxPoint x="543" y="390" as="targetPoint" />
          </mxGeometry>
        </mxCell>
        <mxCell id="lmJ9ai7L8Va1JpHMxE3z-56" value="" style="endArrow=none;html=1;rounded=0;exitX=0.5;exitY=0;exitDx=0;exitDy=0;" edge="1" parent="1" source="lmJ9ai7L8Va1JpHMxE3z-16" target="lmJ9ai7L8Va1JpHMxE3z-6">
          <mxGeometry width="50" height="50" relative="1" as="geometry">
            <mxPoint x="50" y="590" as="sourcePoint" />
            <mxPoint x="100" y="540" as="targetPoint" />
          </mxGeometry>
        </mxCell>
        <mxCell id="lmJ9ai7L8Va1JpHMxE3z-57" value="0..*" style="text;html=1;align=center;verticalAlign=middle;resizable=0;points=[];autosize=1;strokeColor=none;fillColor=none;" vertex="1" parent="1">
          <mxGeometry x="-250" y="720" width="40" height="30" as="geometry" />
        </mxCell>
        <mxCell id="lmJ9ai7L8Va1JpHMxE3z-58" value="0..*" style="text;html=1;align=center;verticalAlign=middle;resizable=0;points=[];autosize=1;strokeColor=none;fillColor=none;" vertex="1" parent="1">
          <mxGeometry x="110" y="380" width="40" height="30" as="geometry" />
        </mxCell>
        <mxCell id="lmJ9ai7L8Va1JpHMxE3z-59" value="" style="endArrow=none;html=1;rounded=0;exitX=0.5;exitY=0;exitDx=0;exitDy=0;" edge="1" parent="1" source="lmJ9ai7L8Va1JpHMxE3z-15" target="lmJ9ai7L8Va1JpHMxE3z-22">
          <mxGeometry width="50" height="50" relative="1" as="geometry">
            <mxPoint x="1310" y="510" as="sourcePoint" />
            <mxPoint x="1290" y="390" as="targetPoint" />
          </mxGeometry>
        </mxCell>
        <mxCell id="lmJ9ai7L8Va1JpHMxE3z-60" value="0..*" style="text;html=1;align=center;verticalAlign=middle;resizable=0;points=[];autosize=1;strokeColor=none;fillColor=none;" vertex="1" parent="1">
          <mxGeometry x="1310" y="490" width="40" height="30" as="geometry" />
        </mxCell>
        <mxCell id="lmJ9ai7L8Va1JpHMxE3z-61" value="1..1" style="text;html=1;align=center;verticalAlign=middle;resizable=0;points=[];autosize=1;strokeColor=none;fillColor=none;" vertex="1" parent="1">
          <mxGeometry x="1240" y="380" width="40" height="30" as="geometry" />
        </mxCell>
        <mxCell id="lmJ9ai7L8Va1JpHMxE3z-62" value="" style="endArrow=none;html=1;rounded=0;exitX=1;exitY=0.5;exitDx=0;exitDy=0;entryX=0;entryY=0.75;entryDx=0;entryDy=0;" edge="1" parent="1" source="lmJ9ai7L8Va1JpHMxE3z-13" target="lmJ9ai7L8Va1JpHMxE3z-6">
          <mxGeometry width="50" height="50" relative="1" as="geometry">
            <mxPoint x="-255" y="760" as="sourcePoint" />
            <mxPoint x="123" y="390" as="targetPoint" />
          </mxGeometry>
        </mxCell>
        <mxCell id="lmJ9ai7L8Va1JpHMxE3z-63" value="0..*" style="text;html=1;align=center;verticalAlign=middle;resizable=0;points=[];autosize=1;strokeColor=none;fillColor=none;" vertex="1" parent="1">
          <mxGeometry x="-305" y="550" width="40" height="30" as="geometry" />
        </mxCell>
        <mxCell id="lmJ9ai7L8Va1JpHMxE3z-64" value="0..*" style="text;html=1;align=center;verticalAlign=middle;resizable=0;points=[];autosize=1;strokeColor=none;fillColor=none;" vertex="1" parent="1">
          <mxGeometry x="40" y="330" width="40" height="30" as="geometry" />
        </mxCell>
        <mxCell id="lmJ9ai7L8Va1JpHMxE3z-65" value="&lt;p style=&quot;margin:0px;margin-top:4px;text-align:center;&quot;&gt;&lt;b&gt;Tracibilte_evenement_poster&lt;/b&gt;&lt;/p&gt;&lt;hr size=&quot;1&quot; style=&quot;border-style:solid;&quot;&gt;&lt;p style=&quot;margin:0px;margin-left:4px;&quot;&gt;&lt;br&gt;&lt;/p&gt;&lt;hr size=&quot;1&quot; style=&quot;border-style:solid;&quot;&gt;&lt;p style=&quot;margin:0px;margin-left:4px;&quot;&gt;&lt;br&gt;&lt;/p&gt;" style="verticalAlign=top;align=left;overflow=fill;html=1;whiteSpace=wrap;" vertex="1" parent="1">
          <mxGeometry x="-400" y="290" width="200" height="150" as="geometry" />
        </mxCell>
        <mxCell id="lmJ9ai7L8Va1JpHMxE3z-66" value="" style="endArrow=none;dashed=1;html=1;rounded=0;exitX=1;exitY=0.5;exitDx=0;exitDy=0;" edge="1" parent="1" source="lmJ9ai7L8Va1JpHMxE3z-65">
          <mxGeometry width="50" height="50" relative="1" as="geometry">
            <mxPoint x="20" y="410" as="sourcePoint" />
            <mxPoint x="-90" y="460" as="targetPoint" />
          </mxGeometry>
        </mxCell>
        <mxCell id="lmJ9ai7L8Va1JpHMxE3z-67" value="&lt;p style=&quot;margin:0px;margin-top:4px;text-align:center;&quot;&gt;&lt;b&gt;Equipement_camera&lt;/b&gt;&lt;/p&gt;&lt;hr size=&quot;1&quot; style=&quot;border-style:solid;&quot;&gt;&lt;p style=&quot;margin:0px;margin-left:4px;&quot;&gt;&amp;nbsp; -equipement: String&lt;/p&gt;&lt;hr size=&quot;1&quot; style=&quot;border-style:solid;&quot;&gt;&lt;p style=&quot;margin: 0px 0px 0px 4px;&quot;&gt;+suivreCours()&lt;/p&gt;&lt;p style=&quot;margin: 0px 0px 0px 4px;&quot;&gt;&amp;nbsp; +consulterNotes()&lt;/p&gt;&lt;div&gt;&lt;br&gt;&lt;/div&gt;" style="verticalAlign=top;align=left;overflow=fill;html=1;whiteSpace=wrap;" vertex="1" parent="1">
          <mxGeometry x="1450" y="250" width="170" height="160" as="geometry" />
        </mxCell>
        <mxCell id="lmJ9ai7L8Va1JpHMxE3z-68" value="" style="endArrow=none;html=1;rounded=0;exitX=1;exitY=0.25;exitDx=0;exitDy=0;" edge="1" parent="1" source="lmJ9ai7L8Va1JpHMxE3z-22" target="lmJ9ai7L8Va1JpHMxE3z-67">
          <mxGeometry width="50" height="50" relative="1" as="geometry">
            <mxPoint x="1350" y="340" as="sourcePoint" />
            <mxPoint x="1400" y="290" as="targetPoint" />
          </mxGeometry>
        </mxCell>
        <mxCell id="lmJ9ai7L8Va1JpHMxE3z-69" value="1..*" style="text;html=1;align=center;verticalAlign=middle;resizable=0;points=[];autosize=1;strokeColor=none;fillColor=none;" vertex="1" parent="1">
          <mxGeometry x="1400" y="315" width="40" height="30" as="geometry" />
        </mxCell>
        <mxCell id="lmJ9ai7L8Va1JpHMxE3z-70" value="1..1" style="text;html=1;align=center;verticalAlign=middle;resizable=0;points=[];autosize=1;strokeColor=none;fillColor=none;" vertex="1" parent="1">
          <mxGeometry x="1260" y="270" width="40" height="30" as="geometry" />
        </mxCell>
        <mxCell id="lmJ9ai7L8Va1JpHMxE3z-71" value="" style="endArrow=none;dashed=1;html=1;rounded=0;" edge="1" parent="1" source="lmJ9ai7L8Va1JpHMxE3z-48">
          <mxGeometry width="50" height="50" relative="1" as="geometry">
            <mxPoint x="270" y="530" as="sourcePoint" />
            <mxPoint x="460" y="550" as="targetPoint" />
          </mxGeometry>
        </mxCell>
        <mxCell id="lmJ9ai7L8Va1JpHMxE3z-72" value="" style="endArrow=none;dashed=1;html=1;rounded=0;" edge="1" parent="1" target="lmJ9ai7L8Va1JpHMxE3z-48">
          <mxGeometry width="50" height="50" relative="1" as="geometry">
            <mxPoint x="280" y="530" as="sourcePoint" />
            <mxPoint x="460" y="550" as="targetPoint" />
          </mxGeometry>
        </mxCell>
        <mxCell id="lmJ9ai7L8Va1JpHMxE3z-48" value="{ XOR}" style="text;html=1;align=center;verticalAlign=middle;resizable=0;points=[];autosize=1;strokeColor=none;fillColor=none;" vertex="1" parent="1">
          <mxGeometry x="330" y="530" width="60" height="30" as="geometry" />
        </mxCell>
        <mxCell id="lmJ9ai7L8Va1JpHMxE3z-73" value="&lt;p style=&quot;margin:0px;margin-top:4px;text-align:center;&quot;&gt;&lt;b&gt;&amp;lt;&amp;lt;enumeration&amp;gt;&amp;gt;&lt;/b&gt;&lt;/p&gt;&lt;p style=&quot;margin:0px;margin-top:4px;text-align:center;&quot;&gt;&lt;b&gt;Post&lt;/b&gt;&lt;/p&gt;&lt;hr size=&quot;1&quot; style=&quot;border-style:solid;&quot;&gt;&lt;p style=&quot;margin:0px;margin-left:4px;&quot;&gt;&lt;/p&gt;&lt;p style=&quot;margin:0px;margin-left:4px;&quot;&gt;Admin&lt;/p&gt;&lt;p style=&quot;margin:0px;margin-left:4px;&quot;&gt;Prof_fr&lt;/p&gt;&lt;p style=&quot;margin:0px;margin-left:4px;&quot;&gt;camerman&lt;/p&gt;&lt;p style=&quot;margin:0px;margin-left:4px;&quot;&gt;BDE&lt;/p&gt;&lt;p style=&quot;margin:0px;margin-left:4px;&quot;&gt;Staf&lt;/p&gt;&lt;p style=&quot;margin:0px;margin-left:4px;&quot;&gt;No_Admit_SAS&lt;/p&gt;&lt;p style=&quot;margin:0px;margin-left:4px;&quot;&gt;Admit_YC&lt;/p&gt;&lt;p style=&quot;margin:0px;margin-left:4px;&quot;&gt;&lt;br&gt;&lt;/p&gt;&lt;p style=&quot;margin:0px;margin-left:4px;&quot;&gt;&lt;br&gt;&lt;/p&gt;&lt;p style=&quot;margin:0px;margin-left:4px;&quot;&gt;&lt;br&gt;&lt;/p&gt;" style="verticalAlign=top;align=left;overflow=fill;html=1;whiteSpace=wrap;" vertex="1" parent="1">
          <mxGeometry x="950" y="-160" width="170" height="200" as="geometry" />
        </mxCell>
        <mxCell id="lmJ9ai7L8Va1JpHMxE3z-75" value="" style="endArrow=none;html=1;rounded=0;entryX=0.008;entryY=0.438;entryDx=0;entryDy=0;entryPerimeter=0;exitX=0.996;exitY=0.305;exitDx=0;exitDy=0;exitPerimeter=0;" edge="1" parent="1" source="lmJ9ai7L8Va1JpHMxE3z-5" target="lmJ9ai7L8Va1JpHMxE3z-73">
          <mxGeometry width="50" height="50" relative="1" as="geometry">
            <mxPoint x="870" y="-20" as="sourcePoint" />
            <mxPoint x="920" y="-70" as="targetPoint" />
          </mxGeometry>
        </mxCell>
        <mxCell id="lmJ9ai7L8Va1JpHMxE3z-76" value="&lt;p style=&quot;margin:0px;margin-top:4px;text-align:center;&quot;&gt;&lt;b&gt;Groupes_affecter&lt;/b&gt;&lt;/p&gt;&lt;hr size=&quot;1&quot; style=&quot;border-style:solid;&quot;&gt;&lt;p style=&quot;margin:0px;margin-left:4px;&quot;&gt;+ Groupe:String&lt;/p&gt;&lt;hr size=&quot;1&quot; style=&quot;border-style:solid;&quot;&gt;&lt;p style=&quot;margin:0px;margin-left:4px;&quot;&gt;+Ajouter_groupe()&lt;/p&gt;" style="verticalAlign=top;align=left;overflow=fill;html=1;whiteSpace=wrap;" vertex="1" parent="1">
          <mxGeometry x="800" y="760" width="270" height="170" as="geometry" />
        </mxCell>
        <mxCell id="lmJ9ai7L8Va1JpHMxE3z-77" value="" style="endArrow=none;html=1;rounded=0;exitX=0.471;exitY=0.015;exitDx=0;exitDy=0;exitPerimeter=0;entryX=0.75;entryY=1;entryDx=0;entryDy=0;" edge="1" parent="1" source="lmJ9ai7L8Va1JpHMxE3z-76" target="lmJ9ai7L8Va1JpHMxE3z-9">
          <mxGeometry width="50" height="50" relative="1" as="geometry">
            <mxPoint x="730" y="640" as="sourcePoint" />
            <mxPoint x="780" y="590" as="targetPoint" />
            <Array as="points">
              <mxPoint x="910" y="560" />
            </Array>
          </mxGeometry>
        </mxCell>
        <mxCell id="lmJ9ai7L8Va1JpHMxE3z-78" value="1..*" style="text;html=1;align=center;verticalAlign=middle;resizable=0;points=[];autosize=1;strokeColor=none;fillColor=none;" vertex="1" parent="1">
          <mxGeometry x="920" y="730" width="40" height="30" as="geometry" />
        </mxCell>
        <mxCell id="lmJ9ai7L8Va1JpHMxE3z-79" value="0..*" style="text;html=1;align=center;verticalAlign=middle;resizable=0;points=[];autosize=1;strokeColor=none;fillColor=none;" vertex="1" parent="1">
          <mxGeometry x="820" y="380" width="40" height="30" as="geometry" />
        </mxCell>
      </root>
    </mxGraphModel>
  </diagram>
  <diagram id="YzYV1kppO1Yqvax1B9QQ" name="Page-4">
    <mxGraphModel dx="1221" dy="638" grid="1" gridSize="10" guides="1" tooltips="1" connect="1" arrows="1" fold="1" page="1" pageScale="1" pageWidth="2500" pageHeight="80000" math="0" shadow="0">
      <root>
        <mxCell id="0" />
        <mxCell id="1" parent="0" />
      </root>
    </mxGraphModel>
  </diagram>
</mxfile>
